<svg width="70" height="54" viewBox="0 0 70 54" fill="none" xmlns="http://www.w3.org/2000/svg">
<g clip-path="url(#clip0_1_3725)">
<path d="M66.372 0.82489H18.1342C17.8585 0.82489 17.594 0.934422 17.3991 1.12939C17.2041 1.32435 17.0946 1.58878 17.0946 1.8645C17.0946 2.14023 17.2041 2.40465 17.3991 2.59962C17.594 2.79458 17.8585 2.90412 18.1342 2.90412H66.372C66.7825 2.90458 67.176 3.06784 67.4662 3.35808C67.7565 3.64833 67.9197 4.04185 67.9202 4.45231V49.5471C67.9197 49.9576 67.7565 50.3511 67.4662 50.6413C67.176 50.9316 66.7825 51.0948 66.372 51.0953H3.62742C3.21696 51.0948 2.82344 50.9316 2.53319 50.6413C2.24295 50.3511 2.07969 49.9576 2.07923 49.5471V4.45231C2.07969 4.04185 2.24295 3.64833 2.53319 3.35808C2.82344 3.06784 3.21696 2.90458 3.62742 2.90412H7.91994C8.19566 2.90412 8.46009 2.79458 8.65506 2.59962C8.85002 2.40465 8.95955 2.14023 8.95955 1.8645C8.95955 1.58878 8.85002 1.32435 8.65506 1.12939C8.46009 0.934422 8.19566 0.82489 7.91994 0.82489H3.62742C2.6657 0.82597 1.74368 1.20849 1.06364 1.88853C0.383601 2.56857 0.00107998 3.49059 0 4.45231L0 49.5471C0.00107998 50.5088 0.383601 51.4308 1.06364 52.1109C1.74368 52.7909 2.6657 53.1734 3.62742 53.1745H66.372C67.3337 53.1734 68.2557 52.7909 68.9358 52.1109C69.6158 51.4308 69.9983 50.5088 69.9994 49.5471V4.45231C69.9982 3.49064 69.6156 2.56871 68.9356 1.8887C68.2556 1.20869 67.3337 0.826124 66.372 0.82489Z" fill="#FDAE05"/>
<path fill-rule="evenodd" clip-rule="evenodd" d="M6.00879 9.33065C6.00822 9.00286 6.10486 8.68226 6.2865 8.40941C6.46814 8.13655 6.72662 7.92369 7.02925 7.79774C7.33188 7.6718 7.66506 7.63843 7.98665 7.70185C8.30824 7.76528 8.6038 7.92265 8.83595 8.15406C9.0681 8.38548 9.22641 8.68054 9.29085 9.00193C9.35529 9.32332 9.32298 9.6566 9.19799 9.95963C9.07301 10.2627 8.86096 10.5218 8.58868 10.7043C8.3164 10.8868 7.99611 10.9845 7.66832 10.9849C7.22919 10.9846 6.80805 10.8104 6.49705 10.5004C6.18604 10.1904 6.01049 9.76978 6.00879 9.33065ZM10.6994 9.33065C10.6989 9.00264 10.7956 8.68183 10.9775 8.40886C11.1594 8.13589 11.4182 7.92303 11.7211 7.79724C12.024 7.67145 12.3575 7.63838 12.6792 7.70223C13.001 7.76609 13.2965 7.92398 13.5285 8.15592C13.7604 8.38786 13.9183 8.68341 13.9821 9.00515C14.046 9.32688 14.0129 9.66033 13.8871 9.96326C13.7613 10.2662 13.5485 10.525 13.2755 10.7069C13.0025 10.8887 12.6817 10.9855 12.3537 10.9849C11.9153 10.9839 11.4952 10.8092 11.1852 10.4992C10.8751 10.1892 10.7005 9.76906 10.6994 9.33065ZM15.3883 9.33065C15.388 9.00292 15.4849 8.68245 15.6668 8.40983C15.8487 8.1372 16.1074 7.92467 16.4101 7.79915C16.7128 7.67362 17.046 7.64075 17.3674 7.70469C17.6889 7.76862 17.9841 7.9265 18.2158 8.15832C18.4474 8.39014 18.6051 8.68549 18.6688 9.00697C18.7325 9.32845 18.6994 9.6616 18.5737 9.96425C18.4479 10.2669 18.2352 10.5254 17.9625 10.7071C17.6897 10.8888 17.3692 10.9855 17.0415 10.9849C16.6032 10.9834 16.1834 10.8086 15.8736 10.4987C15.5638 10.1887 15.3897 9.76887 15.3883 9.33065Z" fill="#FDAE05"/>
<path fill-rule="evenodd" clip-rule="evenodd" d="M53.6458 25.2201L53.3695 24.0403C53.0624 23.9488 52.765 23.8274 52.4817 23.6777L51.3305 24.3901C51.2037 24.495 51.0442 24.5525 50.8796 24.5525C50.715 24.5525 50.5555 24.495 50.4287 24.3901L49.9041 23.8596C49.6552 23.6142 49.7292 23.2808 49.9041 22.9631L50.6147 21.8066C50.4185 21.4425 50.2728 21.0535 50.1816 20.6501L49.074 20.3867C48.7295 20.3091 48.4375 20.1016 48.4375 19.7519V19.0087C48.4375 18.6589 48.729 18.4747 49.074 18.3675L50.3442 18.076L50.705 17.3182C50.4975 16.9842 50.29 16.6456 50.0883 16.3116C49.9807 16.1866 49.9216 16.0273 49.9216 15.8624C49.9216 15.6976 49.9807 15.5382 50.0883 15.4133L50.6129 14.8887C50.8583 14.6398 51.1958 14.7173 51.5112 14.8887L52.5901 15.5579L53.3228 15.2577C53.4219 14.859 53.5303 14.4585 53.6458 14.0633C53.7484 13.7188 53.9291 13.4268 54.287 13.4268H55.0302C55.3799 13.4268 55.5857 13.7182 55.6667 14.0633L55.964 15.2577L56.8424 15.6202C57.1601 15.4325 57.4737 15.2542 57.7931 15.077C58.1126 14.8998 58.4442 14.8281 58.6896 15.077L59.2201 15.6016C59.3255 15.7275 59.3833 15.8865 59.3833 16.0507C59.3833 16.2149 59.3255 16.3739 59.2201 16.4998L58.6628 17.4325L58.9444 18.0276C59.4043 18.1442 59.8426 18.2608 60.2326 18.3721C60.5788 18.473 60.8738 18.6572 60.8738 19.0133V19.7565C60.8738 20.1063 60.5823 20.3103 60.2326 20.3913L59.1175 20.6746L58.7672 21.6696C58.9852 22.0357 59.1968 22.4076 59.4037 22.7806C59.5786 23.0948 59.6544 23.4283 59.4037 23.6789L58.8791 24.2035C58.7537 24.3094 58.5949 24.3675 58.4308 24.3675C58.2668 24.3675 58.108 24.3094 57.9826 24.2035L56.9654 23.6008C56.6441 23.7884 56.3012 23.9362 55.9442 24.0409L55.6661 25.2207C55.5851 25.5652 55.3828 25.8572 55.0296 25.8572H54.284C53.9326 25.8566 53.7489 25.5646 53.6458 25.2201ZM56.931 19.6423C56.931 19.1928 56.7978 18.7534 56.5481 18.3797C56.2985 18.0059 55.9437 17.7145 55.5285 17.5423C55.1133 17.3702 54.6564 17.3249 54.2155 17.4124C53.7746 17.4998 53.3695 17.716 53.0514 18.0336C52.7334 18.3511 52.5166 18.7559 52.4285 19.1966C52.3404 19.6374 52.3849 20.0944 52.5564 20.5098C52.7279 20.9253 53.0188 21.2806 53.3921 21.5308C53.7655 21.781 54.2047 21.9149 54.6542 21.9156C55.2571 21.9148 55.8352 21.6752 56.2619 21.2491C56.6885 20.823 56.9295 20.2452 56.931 19.6423Z" fill="#FDAE05"/>
<path fill-rule="evenodd" clip-rule="evenodd" d="M49.0141 43.2109C49.0147 42.9561 49.1162 42.712 49.2965 42.5319C49.4768 42.3518 49.7211 42.2506 49.9758 42.2503H59.2102C59.4648 42.2503 59.7089 42.3514 59.8889 42.5314C60.0689 42.7114 60.17 42.9555 60.17 43.21C60.17 43.4646 60.0689 43.7087 59.8889 43.8887C59.7089 44.0687 59.4648 44.1698 59.2102 44.1698H49.9758C49.7213 44.1696 49.4772 44.0686 49.297 43.8889C49.1167 43.7092 49.015 43.4654 49.0141 43.2109ZM48.9727 39.7327C48.9736 39.4785 49.075 39.235 49.2547 39.0553C49.4344 38.8755 49.6779 38.7742 49.9321 38.7732H63.0312C63.2863 38.7732 63.5309 38.8746 63.7113 39.0549C63.8917 39.2353 63.993 39.4799 63.993 39.735C63.993 39.9901 63.8917 40.2347 63.7113 40.4151C63.5309 40.5955 63.2863 40.6968 63.0312 40.6968H49.9321C49.8057 40.6968 49.6806 40.6719 49.5639 40.6233C49.4472 40.5748 49.3412 40.5037 49.252 40.4142C49.1629 40.3246 49.0923 40.2182 49.0444 40.1013C48.9964 39.9844 48.9721 39.8591 48.9727 39.7327ZM49.0141 35.439C49.0148 35.1842 49.1164 34.94 49.2966 34.7598C49.4768 34.5796 49.721 34.478 49.9758 34.4772H59.2102C59.4648 34.4772 59.7089 34.5783 59.8889 34.7583C60.0689 34.9383 60.17 35.1824 60.17 35.437C60.17 35.6915 60.0689 35.9356 59.8889 36.1156C59.7089 36.2956 59.4648 36.3967 59.2102 36.3967H49.9758C49.7214 36.397 49.4772 36.2964 49.2969 36.1168C49.1165 35.9373 49.0148 35.6935 49.0141 35.439ZM48.9727 31.9591C48.9733 31.7048 49.0746 31.4612 49.2544 31.2815C49.4342 31.1018 49.6779 31.0006 49.9321 31.0002H63.0312C63.1571 31.0002 63.2818 31.025 63.3981 31.0732C63.5145 31.1214 63.6202 31.192 63.7092 31.281C63.7983 31.3701 63.8689 31.4758 63.9171 31.5921C63.9653 31.7085 63.9901 31.8331 63.9901 31.9591C63.9901 32.085 63.9653 32.2097 63.9171 32.326C63.8689 32.4423 63.7983 32.5481 63.7092 32.6371C63.6202 32.7261 63.5145 32.7968 63.3981 32.845C63.2818 32.8931 63.1571 32.9179 63.0312 32.9179H49.9321C49.6778 32.9179 49.4338 32.8169 49.2539 32.6371C49.074 32.4573 48.9728 32.2134 48.9727 31.9591Z" fill="#FDAE05"/>
<path fill-rule="evenodd" clip-rule="evenodd" d="M6.99219 43.2115C6.99342 42.9576 7.09495 42.7144 7.27467 42.535C7.45439 42.3556 7.69772 42.2546 7.95165 42.2538H38.5589C38.8134 42.2538 39.0575 42.3549 39.2375 42.5349C39.4175 42.7149 39.5186 42.959 39.5186 43.2135C39.5186 43.4681 39.4175 43.7122 39.2375 43.8922C39.0575 44.0722 38.8134 44.1733 38.5589 44.1733H7.95165C7.69697 44.1727 7.45293 44.0711 7.27307 43.8908C7.0932 43.7105 6.99219 43.4662 6.99219 43.2115Z" fill="#FDAE05"/>
<path fill-rule="evenodd" clip-rule="evenodd" d="M16.2657 39.0909C17.0339 39.0909 17.7848 39.3187 18.4235 39.7455C19.0622 40.1723 19.56 40.7788 19.854 41.4885C20.148 42.1982 20.2249 42.9792 20.075 43.7326C19.9252 44.486 19.5552 45.178 19.0121 45.7212C18.4689 46.2644 17.7769 46.6343 17.0234 46.7841C16.27 46.934 15.4891 46.8571 14.7794 46.5631C14.0697 46.2691 13.4632 45.7713 13.0364 45.1326C12.6096 44.4939 12.3818 43.743 12.3818 42.9748C12.3837 41.9453 12.7935 40.9585 13.5214 40.2306C14.2494 39.5026 15.2362 39.0928 16.2657 39.0909Z" fill="#FDAE05"/>
<path fill-rule="evenodd" clip-rule="evenodd" d="M6.9082 33.1628V16.4287H39.5952V33.1628H6.9082ZM37.674 31.2433V18.3482H8.82596V31.2433H37.674Z" fill="#FDAE05"/>
<path fill-rule="evenodd" clip-rule="evenodd" d="M12.376 29.3955V25.8537H15.9265V29.3955H12.376ZM18.4446 29.3955V25.8537H21.9875V29.3955H18.4446ZM24.515 29.3955V25.8537H28.0561V29.3955H24.515ZM30.5772 29.3955V25.8537H34.1294V29.3955H30.5772ZM12.376 23.7372V20.1908H15.9265V23.7372H12.376ZM18.4446 23.7372V20.1908H21.9875V23.7372H18.4446ZM24.515 23.7372V20.1908H28.0561V23.7372H24.515ZM30.5772 23.7372V20.1908H34.1294V23.7372H30.5772Z" fill="#FDAE05"/>
</g>
<defs>
<clipPath id="clip0_1_3725">
<rect width="70" height="52.3502" fill="white" transform="translate(0 0.82489)"/>
</clipPath>
</defs>
</svg>
