<svg width="157" height="60" viewBox="0 0 157 60" fill="none" xmlns="http://www.w3.org/2000/svg">
<path d="M81.6932 23.0538C81.174 22.3766 80.4572 21.8687 79.5373 21.5526C80.2258 21.2027 80.7564 20.723 81.1345 20.1192C81.507 19.5153 81.6988 18.8325 81.6988 18.0649C81.6988 16.7839 81.1627 15.7624 80.096 15.0062C79.0238 14.2499 77.4662 13.8718 75.4176 13.8718H67.2063V29.9219H75.8747C78.0136 29.9219 79.6503 29.5438 80.7846 28.7763C81.9189 28.0088 82.4832 26.9253 82.4832 25.52C82.4719 24.555 82.2124 23.7367 81.6932 23.0538ZM71.6985 17.1507H74.8194C76.3488 17.1507 77.1107 17.6643 77.1107 18.6858C77.1107 19.7242 76.3488 20.2434 74.8194 20.2434H71.6985V17.1507ZM75.5022 26.6431H71.6985V23.3868H75.5022C77.0937 23.3868 77.8895 23.9285 77.8895 25.0121C77.8895 26.1013 77.0937 26.6431 75.5022 26.6431Z" fill="white"/>
<path d="M94.6502 18.697C93.5611 17.7545 91.9922 17.2861 89.9266 17.2861C88.9334 17.2861 87.9401 17.4103 86.9581 17.6643C85.9705 17.9182 85.1353 18.2737 84.4468 18.7309L85.2425 20.3393C85.5755 21.0052 86.36 21.3213 87.0485 21.0447C87.1839 20.9883 87.325 20.9431 87.4717 20.8923C88.0812 20.7005 88.6851 20.6045 89.2833 20.6045C90.965 20.6045 91.8454 21.2592 91.9188 22.5741H89.4413C87.562 22.5741 86.1681 22.9014 85.2651 23.5504C84.3621 24.1994 83.9106 25.1137 83.9106 26.2932C83.9106 27.0268 84.0913 27.6815 84.4525 28.2515C84.808 28.8271 85.3441 29.2786 86.0496 29.6172C86.7493 29.9502 87.5845 30.1195 88.5496 30.1195C90.3668 30.1195 91.5914 29.5156 92.2179 28.3079V29.2165L96.2756 29.9106V23.0087C96.2812 21.0786 95.7338 19.6395 94.6502 18.697ZM91.9188 25.932C91.7495 26.406 91.4729 26.7672 91.0948 27.0099C90.7111 27.2526 90.2709 27.3767 89.763 27.3767C89.255 27.3767 88.86 27.2639 88.5722 27.0325C88.2844 26.8011 88.1376 26.4963 88.1376 26.1126C88.1376 25.2717 88.7697 24.8541 90.0395 24.8541H91.9188V25.932Z" fill="white"/>
<path d="M112.265 22.8111V29.9219H109.353C108.557 29.9219 107.908 29.2729 107.908 28.4772V23.5222C107.908 21.8235 107.231 20.977 105.865 20.977C105.114 20.977 104.516 21.2197 104.065 21.7107C103.613 22.2016 103.387 22.9353 103.387 23.9116V29.9219H99.0305V17.8392L103.178 17.4893V18.8437C103.669 18.3415 104.251 17.9521 104.922 17.6868C105.594 17.4216 106.328 17.2861 107.123 17.2861C108.664 17.2861 109.911 17.7433 110.848 18.6631C111.79 19.583 112.265 20.9601 112.265 22.8111Z" fill="white"/>
<path d="M125.013 18.697C123.924 17.7545 122.355 17.2861 120.289 17.2861C119.296 17.2861 118.303 17.4103 117.321 17.6643C116.333 17.9182 115.498 18.2737 114.81 18.7309L115.605 20.3393C115.938 21.0052 116.723 21.3213 117.411 21.0447C117.547 20.9883 117.688 20.9431 117.834 20.8923C118.444 20.7005 119.048 20.6045 119.646 20.6045C121.328 20.6045 122.208 21.2592 122.282 22.5741H119.804C117.925 22.5741 116.531 22.9014 115.628 23.5504C114.725 24.1994 114.273 25.1137 114.273 26.2932C114.273 27.0268 114.454 27.6815 114.815 28.2515C115.171 28.8271 115.707 29.2786 116.407 29.6172C117.112 29.9502 117.942 30.1195 118.907 30.1195C120.724 30.1195 121.949 29.5156 122.575 28.3079V29.2165L126.633 29.9106V23.0087C126.644 21.0786 126.097 19.6395 125.013 18.697ZM122.282 25.932C122.112 26.406 121.836 26.7672 121.458 27.0099C121.074 27.2526 120.634 27.3767 120.126 27.3767C119.618 27.3767 119.223 27.2639 118.935 27.0325C118.647 26.8011 118.5 26.4963 118.5 26.1126C118.5 25.2717 119.132 24.8541 120.402 24.8541H122.282V25.932Z" fill="white"/>
<path d="M142.626 22.8111V29.9219H139.714C138.918 29.9219 138.269 29.2729 138.269 28.4772V23.5222C138.269 21.8235 137.592 20.977 136.226 20.977C135.475 20.977 134.877 21.2197 134.426 21.7107C133.974 22.2016 133.748 22.9353 133.748 23.9116V29.9219H129.392V17.8392L133.54 17.4893V18.8437C134.031 18.3415 134.612 17.9521 135.283 17.6868C135.955 17.4216 136.689 17.2861 137.484 17.2861C139.031 17.2861 140.272 17.7433 141.209 18.6631C142.152 19.583 142.626 20.9601 142.626 22.8111Z" fill="white"/>
<path d="M155.374 18.697C154.285 17.7545 152.716 17.2861 150.651 17.2861C149.658 17.2861 148.67 17.4103 147.682 17.6643C146.695 17.9182 145.859 18.2737 145.171 18.7309L146.638 21.6881C147.067 21.3551 147.586 21.0899 148.196 20.898C148.805 20.7061 149.409 20.6102 150.007 20.6102C151.689 20.6102 152.57 21.2648 152.643 22.5797H150.165C148.286 22.5797 146.892 22.9071 145.989 23.5561C145.086 24.2051 144.635 25.1193 144.635 26.2988C144.635 27.0325 144.815 27.6871 145.177 28.2571C145.532 28.8327 146.068 29.2842 146.774 29.6229C147.473 29.9558 148.309 30.1251 149.274 30.1251C151.091 30.1251 152.316 29.5213 152.942 28.3136V29.2222L157 29.9163V23.0143C157 21.0786 156.458 19.6395 155.374 18.697ZM152.649 25.932C152.479 26.406 152.203 26.7672 151.825 27.0099C151.441 27.2526 151.001 27.3767 150.493 27.3767C149.985 27.3767 149.59 27.2639 149.302 27.0325C149.014 26.8011 148.867 26.4963 148.867 26.1126C148.867 25.2717 149.499 24.8541 150.769 24.8541H152.649V25.932Z" fill="white"/>
<path d="M78.3188 40.1647H80.9882V45.5768C79.4927 47.2191 77.3594 48.043 74.5828 48.043C72.2464 48.043 70.2881 47.2755 68.7079 45.7348C67.1334 44.1942 66.3433 42.2471 66.3433 39.8938C66.3433 37.5405 67.1447 35.5765 68.753 34.0076C70.3614 32.4387 72.3028 31.6543 74.5828 31.6543C76.8627 31.6543 78.7533 32.3202 80.2658 33.6465L78.838 35.6838C78.2172 35.1533 77.5964 34.7921 76.97 34.5833C76.3436 34.3801 75.6156 34.2785 74.786 34.2785C73.1889 34.2785 71.8457 34.7977 70.7565 35.8305C69.6673 36.8633 69.1255 38.2233 69.1255 39.9051C69.1255 41.5869 69.656 42.9356 70.7113 43.9571C71.7667 44.973 73.0478 45.4865 74.5489 45.4865C76.0501 45.4865 77.3086 45.1592 78.3188 44.5158V40.1647Z" fill="#FFAC27"/>
<path d="M93.8889 47.8569H91.5806V46.2484C90.5874 47.4392 89.2499 48.0375 87.5737 48.0375C86.3209 48.0375 85.2825 47.6819 84.4642 46.9708C83.6402 46.2598 83.2283 45.3173 83.2283 44.1321C83.2283 42.947 83.6684 42.061 84.5432 41.4741C85.4179 40.8871 86.6031 40.5937 88.0986 40.5937H91.3831V40.1422C91.3831 38.5451 90.4914 37.7437 88.7137 37.7437C87.5963 37.7437 86.4338 38.15 85.2261 38.9684L84.0917 37.3825C85.5534 36.22 87.2126 35.6387 89.0693 35.6387C90.4858 35.6387 91.6484 35.9998 92.5457 36.7166C93.443 37.4333 93.8945 38.562 93.8945 40.1027V47.8569H93.8889ZM91.3549 43.3759V42.3601H88.5049C86.6764 42.3601 85.7678 42.9357 85.7678 44.0814C85.7678 44.6683 85.9936 45.1197 86.445 45.4301C86.8965 45.7405 87.5286 45.8929 88.3356 45.8929C89.1426 45.8929 89.8481 45.6672 90.4519 45.2157C91.0501 44.7586 91.3549 44.1491 91.3549 43.3759Z" fill="#FFAC27"/>
<path d="M99.9553 41.3386V47.8569H97.4214V35.8137H99.9553V38.009C100.316 37.2697 100.864 36.6884 101.598 36.2651C102.331 35.8419 103.116 35.6331 103.962 35.6331C105.864 35.6331 107.156 36.4175 107.834 37.9864C109.024 36.4175 110.514 35.6331 112.292 35.6331C113.652 35.6331 114.747 36.0507 115.588 36.8803C116.423 37.7099 116.846 38.9119 116.846 40.4808V47.8569H114.312V41.2483C114.312 39.0305 113.392 37.9187 111.553 37.9187C110.695 37.9187 109.944 38.1952 109.301 38.7426C108.658 39.2957 108.325 40.0971 108.291 41.1524V47.8513H105.757V41.2427C105.757 40.0971 105.554 39.2562 105.147 38.7201C104.741 38.1839 104.098 37.9187 103.223 37.9187C102.348 37.9187 101.586 38.2122 100.937 38.7878C100.277 39.3747 99.9553 40.2212 99.9553 41.3386Z" fill="#FFAC27"/>
<path d="M131.576 42.947H122.14C122.202 43.8218 122.603 44.5272 123.342 45.0634C124.081 45.5995 124.928 45.8647 125.876 45.8647C127.383 45.8647 128.534 45.3907 129.319 44.4369L130.769 46.0228C129.471 47.3659 127.784 48.0375 125.701 48.0375C124.014 48.0375 122.575 47.4731 121.39 46.3501C120.204 45.227 119.612 43.7146 119.612 41.824C119.612 39.9278 120.216 38.4266 121.423 37.3092C122.631 36.1918 124.053 35.6331 125.69 35.6331C127.326 35.6331 128.72 36.1297 129.866 37.1173C131.012 38.1049 131.587 39.465 131.587 41.2032V42.947H131.576ZM122.134 40.9549H129.037C129.037 39.9447 128.72 39.1659 128.088 38.6241C127.456 38.0823 126.672 37.8114 125.746 37.8114C124.821 37.8114 123.986 38.0936 123.246 38.658C122.507 39.2223 122.134 39.9898 122.134 40.9549Z" fill="#FFAC27"/>
<path d="M142.936 44.262C142.936 45.4076 142.519 46.3275 141.689 47.0104C140.86 47.6989 139.793 48.0375 138.495 48.0375C137.62 48.0375 136.712 47.8795 135.769 47.5634C134.827 47.2474 133.991 46.8016 133.269 46.2259L134.494 44.2563C135.899 45.3117 137.253 45.8422 138.568 45.8422C139.144 45.8422 139.595 45.7124 139.928 45.4471C140.261 45.1819 140.425 44.8489 140.425 44.4369C140.425 43.8331 139.624 43.2913 138.026 42.806C137.908 42.7608 137.818 42.7326 137.756 42.7156C135.25 42.0384 133.997 40.9041 133.997 39.3183C133.997 38.2009 134.432 37.3092 135.301 36.6376C136.17 35.966 137.298 35.6331 138.687 35.6331C140.075 35.6331 141.39 36.0394 142.626 36.8577L141.678 38.737C140.696 38.088 139.635 37.7663 138.489 37.7663C137.885 37.7663 137.394 37.8735 137.016 38.0936C136.638 38.3137 136.452 38.6411 136.452 39.0756C136.452 39.4707 136.649 39.7528 137.039 39.9334C137.31 40.0688 137.694 40.1986 138.185 40.3172C138.675 40.4357 139.11 40.5598 139.488 40.6783C139.866 40.7969 140.233 40.9323 140.589 41.0847C140.944 41.2371 141.322 41.4459 141.734 41.7168C142.53 42.2698 142.936 43.1107 142.936 44.262Z" fill="#FFAC27"/>
<path d="M152.75 38.2178V42.4673H148.501C148.501 40.1196 150.403 38.2178 152.75 38.2178Z" fill="#FFAC27"/>
<path d="M157 42.4673C157 44.815 155.098 46.7169 152.75 46.7169V42.4673H157Z" fill="#FFAC27"/>
<path d="M152.75 42.4673V46.7169C150.403 46.7169 148.501 44.815 148.501 42.4673H152.75Z" fill="white"/>
<path d="M157 42.4673H152.75V38.2178C155.098 38.2178 157 40.1196 157 42.4673Z" fill="white"/>
<path d="M52.6009 46.5928C49.0116 48.2237 45.8569 48.4495 45.5521 48.4664C45.5296 48.4664 45.5295 48.4664 45.5295 48.4664C44.2259 48.6131 42.5554 48.726 40.6705 48.6865C34.9706 48.5623 27.2107 47.0612 20.986 40.9323C20.9013 40.8477 20.811 40.763 20.732 40.6727C20.732 40.6727 20.732 40.6727 20.7264 40.6727C18.8414 38.7765 17.3177 36.8408 16.0931 34.9276C14.2251 32.01 13.0512 29.1431 12.3288 26.5132C11.962 25.1757 11.7137 23.9059 11.5444 22.7207C10.8615 10.7565 14.3492 4.65027 14.3492 4.65027L16.3583 3.91098L17.0017 2.60168L12.9045 0L12.1313 1.68744C12.1313 1.68744 12.2893 2.60168 12.3458 3.44821C12.3345 3.48207 12.0805 4.41889 8.94274 7.54539C8.37275 8.11539 7.7181 8.71923 6.96752 9.36259C6.26772 9.9608 5.64128 10.6211 5.08257 11.304C4.11753 12.4778 3.35566 13.7363 2.75745 14.9214C2.74617 14.944 2.72923 14.9722 2.71794 15.0061C2.65022 15.1754 2.57124 15.3447 2.49787 15.5196C2.49223 15.5366 2.48093 15.5535 2.48093 15.5648C2.44707 15.6382 2.41886 15.7059 2.385 15.7849C2.385 15.7849 2.385 15.7849 2.385 15.7905C2.385 15.7905 2.385 15.7905 2.385 15.7962C2.14233 16.3831 1.89964 17.0039 1.66826 17.6642C1.36351 18.5333 1.07569 19.4645 0.821736 20.4464C0.821736 20.4521 0.821736 20.4521 0.821736 20.4521C0.703223 20.9092 0.584723 21.3832 0.48314 21.8686C-0.510117 27.2694 -0.470629 35.7403 5.54534 45.0464C5.54534 45.0464 5.55099 45.0521 5.55099 45.0577C7.39078 47.5578 9.7949 50.1933 12.9496 52.8458C12.9553 52.8514 12.9609 52.8571 12.9722 52.8684C13.2318 53.0715 13.4914 53.269 13.7567 53.4666C13.7567 53.4666 13.7623 53.4722 13.7792 53.4835C13.7961 53.5004 13.8188 53.5173 13.8357 53.5286C13.8978 53.5738 13.9993 53.6472 14.1347 53.7487C14.1855 53.7882 14.2363 53.8221 14.2871 53.856C15.9858 55.0355 21.6519 58.5513 29.3891 59.2624C29.4964 59.2794 29.5923 59.285 29.6996 59.2906C30.1905 59.3245 30.6815 59.3527 31.1612 59.3753C31.1894 59.3753 31.212 59.3753 31.2402 59.3753C36.3984 59.5277 42.341 58.3595 48.5714 54.5163L46.8614 50.8649L49.7227 50.041L50.9925 52.9022C52.0478 52.1347 53.1145 51.2882 54.1867 50.357L54.2206 50.3288L52.6009 46.5928ZM4.98664 22.1225C4.98664 21.1349 5.78802 20.3336 6.78127 20.3336C7.77453 20.3336 8.5759 21.1349 8.5759 22.1225C8.5759 23.1158 7.77453 23.9172 6.78127 23.9172C5.78802 23.9172 4.98664 23.1158 4.98664 22.1225ZM8.39531 30.7232C7.10859 30.7232 6.06454 29.6792 6.06454 28.3925C6.06454 27.1057 7.10859 26.0673 8.39531 26.0673C9.68202 26.0673 10.7204 27.1114 10.7204 28.3925C10.7204 29.6848 9.67638 30.7232 8.39531 30.7232Z" fill="#FFAC27"/>
<path d="M8.57018 22.1225C8.57018 23.1101 7.76881 23.9171 6.77555 23.9171C5.78794 23.9171 4.98657 23.1157 4.98657 22.1225C4.98657 21.1349 5.78794 20.3335 6.77555 20.3335C7.76881 20.3335 8.57018 21.1349 8.57018 22.1225Z" fill="black"/>
<path d="M10.7206 28.3982C10.7206 29.6849 9.67657 30.7289 8.38985 30.7289C7.10313 30.7289 6.05908 29.6849 6.05908 28.3982C6.05908 27.1114 7.10313 26.0674 8.38985 26.0674C9.67657 26.0674 10.7206 27.1114 10.7206 28.3982Z" fill="black"/>
<path d="M56.9577 32.2584C56.9577 32.264 56.952 32.2697 56.952 32.2753C56.5344 33.3758 56.0829 34.386 55.6258 35.3172L53.7352 33.483L51.5286 35.2156L54.2713 37.7664C52.6178 40.481 50.9135 42.3095 49.7114 43.4156C49.164 43.8389 48.5884 44.2508 47.9676 44.6628C46.5906 44.8434 44.6943 45.0127 42.4821 44.9619C39.2709 44.8942 35.4052 44.3863 31.5281 42.8456C28.5709 41.6718 25.6136 39.8997 22.9443 37.2642C21.2456 35.5824 19.8347 33.8837 18.6665 32.1794C20.8223 33.8781 23.4691 35.447 26.7141 36.6716C30.7097 38.1784 34.5812 38.3816 38.035 37.9244C38.5204 37.8624 38.9944 37.7834 39.4628 37.6987C40.5915 37.4899 41.6694 37.2134 42.6796 36.8973C44.2711 36.4063 45.7045 35.8138 46.9291 35.2269C46.9404 35.2212 46.9517 35.2156 46.963 35.2099C47.8886 34.7867 48.7069 34.3465 49.4292 33.9176C49.8243 33.6862 50.1911 33.4492 50.5297 33.2178C50.541 33.2121 50.5523 33.2008 50.5692 33.1952C51.2126 32.7719 51.5794 32.4954 51.6246 32.4615L51.602 32.439C51.9575 32.1624 52.2679 31.8915 52.5388 31.6432C52.6855 31.536 52.7702 31.4739 52.7927 31.457L52.7702 31.4232C53.8199 30.4186 54.2149 29.7245 54.2149 29.7245L54.1698 29.6624V29.6567L54.3504 29.826L56.9577 32.2584Z" fill="#FFAC27"/>
<path d="M50.5864 29.4365C49.4351 30.1927 48.233 30.853 47.0705 31.4287C46.4497 31.739 45.8402 32.0212 45.2533 32.2752C44.8921 32.4332 44.5422 32.58 44.2036 32.721C44.1923 32.7267 44.181 32.7323 44.1698 32.7323C43.3684 33.0145 42.4992 33.2741 41.5793 33.4773C41.9462 32.247 42.1437 30.9433 42.1437 29.5945C42.1437 28.3134 41.9687 27.0775 41.6358 25.9037L43.611 25.1418L48.4024 23.2907L48.6224 23.2061L48.8595 23.1158L49.4069 22.907C50.1236 25.0402 50.5187 27.2356 50.5864 29.4365Z" fill="white"/>
<path d="M44.1638 32.7388C44.1759 32.7388 44.1879 32.7328 44.1999 32.7268C44.1879 32.7328 44.1819 32.7328 44.1638 32.7388Z" fill="white"/>
<path d="M48.3963 23.2964L43.605 25.1474C43.605 25.1418 43.5994 25.1305 43.5994 25.1249L47.5046 23.6406L48.3963 23.2964Z" fill="white"/>
<path d="M2.83668 29.6453C3.42888 29.6453 3.90896 29.1652 3.90896 28.573C3.90896 27.9808 3.42888 27.5007 2.83668 27.5007C2.24449 27.5007 1.7644 27.9808 1.7644 28.573C1.7644 29.1652 2.24449 29.6453 2.83668 29.6453Z" fill="black"/>
<path d="M23.1925 14.9666L22.6507 13.6517L22.6451 13.6348L22.5435 13.3865L23.1925 14.9666Z" fill="#FFAC27"/>
<path d="M21.0821 9.77495L20.8562 9.21021H20.8619C20.8619 9.21021 20.8619 9.21021 20.8675 9.21021L20.8957 9.28928L20.9974 9.56035L21.0821 9.77495Z" fill="#FFAC27"/>
<path d="M23.2037 15.0061C23.1868 15.0118 23.1698 15.0174 23.1529 15.0231L21.9678 11.9756L22.5434 13.3865L22.6619 13.6743L22.7635 13.917L22.8086 14.0242L22.8595 14.1483L22.9046 14.2499L23.2037 15.0061Z" fill="#FFAC27"/>
<path d="M21.697 11.287L21.6801 11.2476L21.6011 11.0444L21.5786 10.9936L20.8788 9.19897C20.8731 9.19897 20.8675 9.19895 20.8618 9.20459L20.8901 9.28361L20.9916 9.55452L21.0706 9.76894L21.0876 9.80845L21.2625 10.2769L21.6011 11.1008L21.9566 11.9699L22.5323 13.3808L22.6508 13.6686L22.7524 13.9113L22.7976 14.0185L22.8483 14.1427L22.8935 14.2443L22.9612 14.4136L22.9725 14.4361V14.4418L22.9894 14.4869L23.1869 14.9553L23.0346 14.5829L23.2039 14.9948H23.2095L21.697 11.287Z" fill="white"/>
<path d="M49.4065 22.907L49.2372 22.9691L48.8534 23.1158L48.6164 23.2061L48.3963 23.2907L47.499 23.6294L46.613 23.968L43.5881 25.1023L41.6072 25.8416C40.5857 22.2749 38.1421 19.3121 34.9253 17.6077L35.6702 15.6438L36.5054 13.4598L36.5224 13.4203L37.9333 9.85921L37.9615 9.74634C38.1252 9.83099 39.0168 10.3107 40.2133 11.1177C41.9063 12.1956 43.43 13.4936 44.7562 14.9666C44.8973 15.119 45.0328 15.277 45.1738 15.435C45.3093 15.5987 45.4448 15.7567 45.5746 15.9203C45.5802 15.926 45.5858 15.9372 45.5915 15.9429C46.8105 17.4666 47.8376 19.1484 48.639 20.9713C48.718 21.1462 48.7857 21.3155 48.8647 21.4961L49.0227 21.8912C49.1695 22.2354 49.288 22.5684 49.4065 22.907Z" fill="#FFAC27"/>
<path d="M37.9669 9.74641L37.9388 9.85929L36.5279 13.4203L36.5109 13.4598L35.6757 15.6439C35.6701 15.6382 35.6588 15.6382 35.6531 15.6326C35.6475 15.6269 35.6419 15.627 35.6362 15.6213L36.6294 13.0535L36.9906 12.1393L37.0866 11.8909L37.0922 11.8853L37.0979 11.874L37.7751 10.1584L37.7864 10.1302L37.9388 9.74077C37.9444 9.73512 37.95 9.73513 37.9669 9.74641Z" fill="#FFAC27"/>
<path d="M43.5942 25.1192V25.1136V25.108L46.6191 23.9736L43.5942 25.1192Z" fill="#FFAC27"/>
<path d="M37.0362 9.34559C31.8047 7.29136 26.1104 7.24624 20.8845 9.19889L21.5843 10.9935L21.6068 11.0443L21.6859 11.2475L21.7028 11.287L23.2153 15.006L23.9602 16.8458C25.3993 16.321 26.9569 16.0388 28.5766 16.0388C30.8509 16.0388 33.0011 16.5975 34.8804 17.5908L35.6535 15.6381C35.6479 15.6325 35.6423 15.6325 35.6366 15.6268L36.6298 13.059L36.991 12.1448L37.087 11.8965L37.0926 11.8908L37.0983 11.8796L37.7755 10.1639L37.7868 10.1357L37.9392 9.74629V9.74065C37.6457 9.59391 37.341 9.46975 37.0362 9.34559Z" fill="white"/>
<path d="M23.9603 16.8403C23.9265 16.8516 23.8982 16.8628 23.87 16.8741C20.546 18.0988 17.8315 20.5932 16.319 23.7705L14.8404 22.1113L14.5808 21.8178C14.3833 20.2659 14.2196 17.6586 14.6316 14.4248L14.8856 14.6844V14.6788L14.6316 14.4136C14.6993 13.8718 14.784 13.3018 14.8912 12.7262C15.2073 12.4722 15.5289 12.2295 15.8563 11.9925C15.8788 11.9756 15.9014 11.9586 15.924 11.9474C15.9691 11.9135 16.0143 11.8853 16.0594 11.8514L16.1102 11.8119C18.7344 9.97778 20.6645 9.27231 20.8564 9.20459L21.0821 9.76894L21.0991 9.80845L21.274 10.2769L21.6126 11.1008L21.9681 11.9699L23.1533 15.0174C23.1702 15.0118 23.1872 15.0061 23.2041 15.0005H23.2098L21.6973 11.2814L21.6803 11.2419L21.6013 11.0387L23.9603 16.8403Z" fill="#FFAC27"/>
<path d="M14.3721 18.6913C14.3721 18.6913 14.1351 22.8223 15.6306 25.3111C15.6306 25.3111 17.1261 21.8234 18.3677 20.3335C19.6149 18.838 18.6161 17.8447 18.6161 17.8447" fill="#FFAC27"/>
</svg>
