<svg width="70" height="42" viewBox="0 0 70 42" fill="none" xmlns="http://www.w3.org/2000/svg">
<g clip-path="url(#clip0_1_3819)">
<path d="M68.2291 9.87269L53.9746 3.52628C53.5452 3.15779 53.0188 2.9208 52.4583 2.84366L52.4347 2.83765L51.3911 2.37549C51.0151 2.20797 50.6085 2.12002 50.1968 2.11715C49.7851 2.11429 49.3773 2.19658 48.999 2.35886L37.9441 0.801369C37.322 0.355911 36.5519 0.167979 35.7946 0.276814L34.9987 0.390045L34.2089 0.276814C33.4518 0.16759 32.6818 0.355569 32.0603 0.801369L21.0044 2.35886C20.6265 2.19515 20.2185 2.11207 19.8066 2.11494C19.3947 2.1178 18.988 2.20654 18.6123 2.37549L17.5687 2.83765L17.5461 2.84366C16.9809 2.92172 16.4502 3.16078 16.0173 3.53229L1.77526 9.87269C1.05083 10.1956 0.484203 10.7928 0.199876 11.5332C-0.0844507 12.2736 -0.063218 13.0966 0.258909 13.8214L11.9054 39.983C12.2292 40.7065 12.8268 41.272 13.5671 41.5555C14.3074 41.8389 15.1299 41.817 15.8541 41.4947L27.2034 36.4401L35.0043 35.3461L42.8 36.4401L54.1493 41.4947C54.8725 41.8169 55.6941 41.8386 56.4333 41.5551C57.1725 41.2716 57.7688 40.7061 58.0911 39.983L69.7376 13.8154C70.06 13.0925 70.0822 12.2711 69.7993 11.5318C69.5165 10.7926 68.9517 10.1958 68.2291 9.87269ZM39.0893 2.44343L47.5783 3.63396C47.5278 3.71749 47.4826 3.80408 47.4429 3.89324L42.5417 14.9043C42.2392 14.2677 42.0029 13.6018 41.8364 12.917C41.8188 12.8273 41.7967 12.7815 41.7564 12.7783C41.7162 12.7751 41.683 12.8125 41.6441 12.8906C41.3905 13.3447 41.0966 13.7752 40.766 14.1768C40.3875 14.6459 39.948 15.1529 39.4914 15.6437C38.7059 16.5402 37.8264 17.3497 36.8682 18.0585L36.8173 18.12L36.8515 18.1999C37.3987 18.7859 38.4811 20.6808 39.2321 22.334L35.795 30.0544C35.4748 30.7786 35.4547 31.6002 35.7391 32.3392C36.0235 33.0782 36.5892 33.6744 37.3123 33.9971L37.9325 34.2744L35.0052 33.8631L33.3132 33.626L30.7403 33.265L29.5956 33.1014C29.1965 33.0455 28.8359 32.8335 28.5928 32.5121C28.3497 32.1907 28.2439 31.786 28.2987 31.3868L29.2457 24.6346L30.7575 13.9064L32.2867 3.0253C32.3289 2.71053 32.4715 2.41779 32.6934 2.19063C32.8591 2.01523 33.0641 1.88181 33.2915 1.80144C33.519 1.72106 33.7623 1.69605 34.0014 1.72847L35.0001 1.86712L37.3132 2.19063L39.0893 2.44343ZM15.257 40.1559C14.8881 40.319 14.4695 40.3293 14.093 40.1846C13.7165 40.0398 13.4126 39.7518 13.248 39.3836L1.60149 13.222C1.43871 12.853 1.42868 12.4346 1.57358 12.0583C1.71847 11.682 2.00651 11.3784 2.37469 11.2139L14.9811 5.59584C14.9668 5.8028 14.9744 6.01069 15.0037 6.21606L16.5894 17.4863C15.9916 17.2475 15.4283 16.9303 14.9141 16.5431C14.8577 16.4922 14.829 16.4816 14.8124 16.4922C14.7958 16.5029 14.7782 16.5264 14.7782 16.6055C14.7676 17.7678 13.7614 19.9446 13.3395 21.7271C12.9503 23.3692 13.3455 25.2299 14.9571 25.7101C15.4498 25.8329 15.9685 25.7996 16.4414 25.6147C16.9144 25.4298 17.3182 25.1025 17.5969 24.6781L18.9834 34.5771C19.0873 35.3005 19.4518 35.9611 20.0085 36.4347C20.5652 36.9082 21.2757 37.1621 22.0064 37.1486L15.257 40.1559ZM26.8083 35.012L22.1561 35.6673C21.7571 35.723 21.3524 35.6179 21.0308 35.3752C20.7092 35.1326 20.4971 34.7722 20.4411 34.3733L19.4705 27.4584L19.0823 24.722L18.9857 24.0403L18.1631 18.1768L16.4531 6.01502C16.4225 5.79228 16.4415 5.56554 16.5087 5.35101C16.576 5.13648 16.6899 4.93948 16.8422 4.77412C17.0779 4.51085 17.4001 4.34067 17.7504 4.29439L17.9874 4.26111L20.7179 3.8766L22.4219 3.63951L30.9109 2.44389C30.8759 2.56815 30.8491 2.6946 30.8309 2.8224L29.4098 12.947C29.0373 12.834 28.6448 12.8025 28.259 12.8546C27.7697 12.9239 27.3095 13.1285 26.9302 13.4452C26.5509 13.762 26.2676 14.1784 26.1122 14.6475C25.9568 15.1166 25.9355 15.6198 26.0506 16.1004C26.1657 16.5809 26.4128 17.0198 26.7639 17.3676C26.6189 17.3611 26.4735 17.3686 26.3299 17.3902C25.9851 17.4388 25.6532 17.5548 25.3532 17.7316C25.0532 17.9084 24.791 18.1426 24.5815 18.4207C24.372 18.6989 24.2194 19.0156 24.1323 19.3527C24.0452 19.6899 24.0253 20.0409 24.0739 20.3857C24.1224 20.7305 24.2384 21.0624 24.4153 21.3624C24.5921 21.6624 24.8262 21.9246 25.1044 22.1341C25.3826 22.3436 25.6993 22.4963 26.0364 22.5834C26.3736 22.6705 26.7246 22.6903 27.0694 22.6418C27.4368 22.5913 27.789 22.4625 28.1023 22.2642L26.8503 31.1765C26.7617 31.7979 26.8717 32.4313 27.1645 32.9865C27.4573 33.5416 27.918 33.9901 28.4808 34.2679C28.7667 34.4153 29.0758 34.5126 29.3945 34.5554L29.7328 34.6016L26.8083 35.012ZM68.4029 13.222L56.7564 39.3836C56.5905 39.7517 56.2859 40.0393 55.909 40.184C55.532 40.3286 55.1132 40.3185 54.7437 40.1559L47.9915 37.1495L43.1901 35.0134L41.5203 34.2693L39.2557 33.265L37.908 32.6614C37.5408 32.4964 37.2537 32.1929 37.1094 31.8171C36.9651 31.4412 36.9752 31.0236 37.1376 30.6552L39.9683 24.2921L40.5271 23.0401L41.6552 20.5075L43.3805 16.6212L48.785 4.48804C48.8925 4.24209 49.0665 4.03099 49.2874 3.87844C49.5016 3.72056 49.7542 3.62276 50.0189 3.59514C50.2836 3.56751 50.5509 3.61107 50.7931 3.72131L52.0054 4.2625L53.1561 4.77088L55.0237 5.60555L67.631 11.219C67.9982 11.3836 68.2854 11.6866 68.4302 12.062C68.5749 12.4375 68.5654 12.8549 68.4038 13.2234L68.4029 13.222Z" fill="#FDAC03"/>
<path d="M54.0652 19.0222C54.1258 18.6178 54.0852 18.2047 53.9469 17.8198C53.8087 17.435 53.5772 17.0905 53.2731 16.8171C52.969 16.5437 52.6018 16.3501 52.2045 16.2535C51.8072 16.1568 51.3921 16.1603 50.9964 16.2635C49.2702 16.709 48.4698 18.7795 48.9994 20.9572C49.4851 22.9649 50.6475 25.2161 50.6863 26.4339L50.7325 26.5129L50.825 26.4902C51.7553 25.7046 54.2043 25.0635 56.0257 24.0815C57.9945 23.0157 58.9983 21.0418 58.1752 19.4561C57.9869 19.0923 57.7113 18.7809 57.373 18.5499C57.0347 18.3188 56.6444 18.1754 56.237 18.1324C55.8297 18.0894 55.418 18.1481 55.0389 18.3034C54.6599 18.4587 54.3253 18.7057 54.0652 19.0222Z" fill="#FDAC03"/>
<path d="M50.2298 10.9892L50.2464 11.0294L50.2857 11.0179C50.7091 10.6629 51.8196 10.375 52.6428 9.92948C53.5343 9.44375 53.9913 8.55224 53.6188 7.8308C53.5327 7.6668 53.4073 7.52664 53.2539 7.4228C53.1005 7.31896 52.9238 7.25467 52.7396 7.23564C52.5553 7.21661 52.3692 7.24343 52.1978 7.31372C52.0264 7.38402 51.8751 7.49561 51.7572 7.63854C51.7847 7.45505 51.7662 7.26761 51.7035 7.093C51.6407 6.9184 51.5357 6.76208 51.3977 6.63803C51.2597 6.51398 51.0932 6.42607 50.9129 6.38219C50.7326 6.3383 50.5443 6.3398 50.3647 6.38654C49.5791 6.59036 49.2186 7.52669 49.4617 8.51249C49.6831 9.4211 50.2067 10.442 50.2298 10.9892Z" fill="#FDAC03"/>
<path d="M54.5668 34.4736C54.5939 34.2902 54.5752 34.1029 54.5123 33.9285C54.4495 33.7541 54.3444 33.5979 54.2065 33.474C54.0686 33.35 53.9022 33.2621 53.7221 33.218C53.542 33.174 53.3538 33.1753 53.1743 33.2216C52.396 33.4245 52.0351 34.3608 52.2722 35.3476C52.4917 36.2613 53.0162 37.2766 53.0384 37.8294L53.0551 37.8636L53.0953 37.852C53.5186 37.5031 54.6292 37.2092 55.4523 36.7636C56.3484 36.2839 56.8 35.3878 56.4284 34.671C56.3431 34.5062 56.2183 34.3651 56.0652 34.2604C55.912 34.1557 55.7352 34.0907 55.5507 34.0711C55.3662 34.0516 55.1798 34.0781 55.008 34.1484C54.8363 34.2186 54.6847 34.3304 54.5668 34.4736Z" fill="#FDAC03"/>
<path d="M7.00518 13.4896C6.39559 13.1568 5.53181 12.8888 5.20275 12.5962L5.16347 12.5778L5.15007 12.6207C5.14683 13.0598 4.76878 13.8815 4.60795 14.5577C4.45959 15.177 4.60795 15.8799 5.22031 16.0615C5.43012 16.1137 5.65158 16.0903 5.84592 15.9956C6.04025 15.9009 6.19507 15.7408 6.28329 15.5434C6.4538 15.9654 6.56381 16.4093 6.61004 16.862L7.37722 16.5195C7.0716 16.1825 6.81518 15.8039 6.61558 15.3951C6.82148 15.4612 7.04402 15.4529 7.24449 15.3719C7.44495 15.2908 7.61065 15.142 7.71275 14.9514C7.98635 14.376 7.56486 13.7937 7.00518 13.4896Z" fill="#FDAC03"/>
<path d="M21.6682 7.69365C21.6072 7.70249 21.547 7.71593 21.488 7.73386C21.6113 7.51655 21.6587 7.26429 21.6225 7.01704C21.5753 6.72169 21.4142 6.45663 21.1736 6.27888C20.9331 6.10113 20.6324 6.02489 20.3362 6.06655C20.04 6.10822 19.772 6.26446 19.5898 6.50167C19.4077 6.73888 19.3259 7.03811 19.362 7.33501C19.3957 7.58202 19.5101 7.81096 19.6874 7.98619C19.6256 7.98523 19.5638 7.9891 19.5025 7.99775C19.3121 8.02421 19.1314 8.09833 18.9773 8.21324C18.8232 8.32816 18.7005 8.48013 18.6208 8.65509C18.5411 8.83004 18.5069 9.0223 18.5213 9.21402C18.5357 9.40574 18.5983 9.5907 18.7033 9.75177C18.8083 9.91284 18.9522 10.0448 19.1218 10.1354C19.2914 10.2259 19.4811 10.2722 19.6734 10.2699C19.8656 10.2676 20.0542 10.2167 20.2215 10.1221C20.3889 10.0275 20.5296 9.8921 20.6307 9.72855C20.6725 10.2002 20.6503 10.6753 20.5646 11.1409L21.5116 11.0073C21.301 10.583 21.1485 10.1322 21.0582 9.66708C21.2004 9.79641 21.373 9.88773 21.5599 9.93256C21.7469 9.9774 21.9421 9.97429 22.1275 9.92354C22.3129 9.87279 22.4825 9.77604 22.6206 9.64226C22.7586 9.50848 22.8607 9.342 22.9172 9.15826C22.9737 8.97453 22.983 8.77949 22.944 8.59124C22.9051 8.40299 22.8192 8.22762 22.6944 8.0814C22.5696 7.93519 22.4099 7.82285 22.2301 7.75482C22.0503 7.6868 21.8563 7.66527 21.6659 7.69226L21.6682 7.69365Z" fill="#FDAC03"/>
<path d="M35.998 4.0874L35.9518 4.13593C35.3937 4.98546 34.6991 5.73702 33.8961 6.36032L33.8726 6.38851L33.8873 6.42178C34.4867 7.24251 34.9472 8.15601 35.2507 9.12589L35.284 9.18736L35.3325 9.13745C35.8915 8.28857 36.586 7.53713 37.3882 6.91306L37.4118 6.88579L37.3961 6.85252C36.7972 6.03131 36.337 5.11752 36.0336 4.14748L35.998 4.0874Z" fill="#FDAC03"/>
</g>
<defs>
<clipPath id="clip0_1_3819">
<rect width="70" height="41.5063" fill="white" transform="translate(0 0.246826)"/>
</clipPath>
</defs>
</svg>
