<svg width="70" height="58" viewBox="0 0 70 58" fill="none" xmlns="http://www.w3.org/2000/svg">
<g clip-path="url(#clip0_1_3796)">
<path d="M64.4145 0.702026H5.58419C4.10351 0.703745 2.68398 1.2927 1.63699 2.33969C0.589992 3.38669 0.00103672 4.80622 -0.000681453 6.28689V38.3083C0.00602611 38.6 0.126646 38.8776 0.335377 39.0816C0.544109 39.2856 0.824377 39.3998 1.11623 39.3998C1.40809 39.3998 1.68836 39.2856 1.89709 39.0816C2.10582 38.8776 2.22644 38.6 2.23315 38.3083V6.28689C2.23424 5.39848 2.58765 4.54676 3.21585 3.91856C3.84406 3.29035 4.69577 2.93695 5.58419 2.93586H64.4139C65.3023 2.93695 66.154 3.29035 66.7822 3.91856C67.4104 4.54676 67.7638 5.39848 67.7649 6.28689V42.7765C67.7638 43.6649 67.4104 44.5166 66.7822 45.1448C66.154 45.773 65.3023 46.1264 64.4139 46.1275H41.7014C41.528 46.1275 41.357 46.1679 41.2019 46.2454C41.0468 46.323 40.9119 46.4356 40.8079 46.5743L34.997 54.3192L29.1884 46.5743C29.0844 46.4356 28.9495 46.323 28.7944 46.2454C28.6393 46.1679 28.4683 46.1275 28.2949 46.1275H5.58419C4.69577 46.1264 3.84406 45.773 3.21585 45.1448C2.58765 44.5166 2.23424 43.6649 2.23315 42.7765C2.23657 42.6277 2.21021 42.4797 2.15562 42.3411C2.10102 42.2026 2.0193 42.0764 1.91525 41.97C1.81119 41.8635 1.68691 41.7789 1.54969 41.7211C1.41248 41.6634 1.26511 41.6336 1.11623 41.6336C0.967358 41.6336 0.819985 41.6634 0.682772 41.7211C0.545559 41.7789 0.421274 41.8635 0.31722 41.97C0.213166 42.0764 0.131442 42.2026 0.0768497 42.3411C0.022257 42.4797 -0.00410296 42.6277 -0.000681453 42.7765C0.00103672 44.2572 0.589992 45.6767 1.63699 46.7237C2.68398 47.7707 4.10351 48.3597 5.58419 48.3614H27.7378L34.1058 56.8511C34.2099 56.9898 34.3448 57.1023 34.4999 57.1798C34.6549 57.2573 34.8259 57.2977 34.9993 57.2977C35.1727 57.2977 35.3437 57.2573 35.4988 57.1798C35.6539 57.1023 35.7888 56.9898 35.8929 56.8511L42.2597 48.362H64.4139C65.8945 48.3602 67.3141 47.7713 68.3611 46.7243C69.4081 45.6773 69.997 44.2578 69.9987 42.7771V6.28689C69.997 4.80633 69.4081 3.38688 68.3613 2.3399C67.3144 1.29292 65.895 0.703901 64.4145 0.702026Z" fill="#FDAC03"/>
<path d="M34.999 25.6495C35.6161 25.6495 36.1163 25.1493 36.1163 24.5322C36.1163 23.9152 35.6161 23.415 34.999 23.415C34.382 23.415 33.8818 23.9152 33.8818 24.5322C33.8818 25.1493 34.382 25.6495 34.999 25.6495Z" fill="#FDAC03"/>
<path d="M40.2129 25.6495C40.8299 25.6495 41.3301 25.1493 41.3301 24.5322C41.3301 23.9152 40.8299 23.415 40.2129 23.415C39.5959 23.415 39.0957 23.9152 39.0957 24.5322C39.0957 25.1493 39.5959 25.6495 40.2129 25.6495Z" fill="#FDAC03"/>
<path d="M29.7871 25.6495C30.4041 25.6495 30.9043 25.1493 30.9043 24.5322C30.9043 23.9152 30.4041 23.415 29.7871 23.415C29.1701 23.415 28.6699 23.9152 28.6699 24.5322C28.6699 25.1493 29.1701 25.6495 29.7871 25.6495Z" fill="#FDAC03"/>
</g>
<defs>
<clipPath id="clip0_1_3796">
<rect width="70" height="56.5958" fill="white" transform="translate(0 0.702026)"/>
</clipPath>
</defs>
</svg>
