<svg width="70" height="70" viewBox="0 0 70 70" fill="none" xmlns="http://www.w3.org/2000/svg">
<g clip-path="url(#clip0_1_43)">
<g clip-path="url(#clip1_1_43)">
<g clip-path="url(#clip2_1_43)">
<path d="M20.4166 62.7083C20.4166 63.0951 20.2629 63.4661 19.9894 63.7396C19.7159 64.0131 19.3449 64.1668 18.9581 64.1668H10.2113C9.05145 64.1655 7.93952 63.7041 7.1194 62.884C6.29928 62.0639 5.83795 60.952 5.8366 59.7921V53.9581C5.8366 53.7666 5.87432 53.5769 5.94762 53.3999C6.02091 53.223 6.12835 53.0622 6.26378 52.9268C6.39922 52.7913 6.56 52.6839 6.73696 52.6106C6.91391 52.5373 7.10357 52.4996 7.29511 52.4996C7.48664 52.4996 7.6763 52.5373 7.85325 52.6106C8.03021 52.6839 8.19099 52.7913 8.32643 52.9268C8.46186 53.0622 8.5693 53.223 8.64259 53.3999C8.71589 53.5769 8.75362 53.7666 8.75362 53.9581V59.7913C8.75407 60.1778 8.90776 60.5484 9.181 60.8218C9.45424 61.0952 9.82474 61.2491 10.2113 61.2498H18.9581C19.3449 61.2498 19.7159 61.4035 19.9894 61.677C20.2629 61.9505 20.4166 62.3215 20.4166 62.7083ZM29.1668 23.0417C28.78 23.0417 28.409 23.1954 28.1355 23.4689C27.862 23.7425 27.7083 24.1134 27.7083 24.5003V24.7921C27.7083 25.1789 27.862 25.5499 28.1355 25.8235C28.409 26.097 28.78 26.2506 29.1668 26.2506C29.5536 26.2506 29.9246 26.097 30.1981 25.8235C30.4717 25.5499 30.6253 25.1789 30.6253 24.7921V24.5003C30.6253 24.1134 30.4717 23.7425 30.1981 23.4689C29.9246 23.1954 29.5536 23.0417 29.1668 23.0417ZM21.8751 8.74596H26.2498C26.4418 8.74618 26.6319 8.78428 26.8092 8.85809C26.9865 8.93189 27.1475 9.03994 27.283 9.17605C27.4185 9.31216 27.5258 9.47366 27.5988 9.6513C27.6718 9.82894 27.709 10.0192 27.7083 10.2113V17.503C27.7083 17.8898 27.862 18.2608 28.1355 18.5343C28.409 18.8078 28.78 18.9615 29.1668 18.9615C29.5536 18.9615 29.9246 18.8078 30.1981 18.5343C30.4717 18.2608 30.6253 17.8898 30.6253 17.503V10.2113C30.624 9.05145 30.1626 7.93952 29.3425 7.1194C28.5224 6.29928 27.4105 5.83795 26.2506 5.8366H21.8751C21.4883 5.8366 21.1173 5.99026 20.8438 6.26378C20.5703 6.53731 20.4166 6.90828 20.4166 7.29511C20.4166 7.68193 20.5703 8.0529 20.8438 8.32643C21.1173 8.59995 21.4883 8.75362 21.8751 8.75362V8.74596ZM62.7083 51.0377C62.5162 51.0377 62.326 51.0756 62.1486 51.1493C61.9712 51.2231 61.8101 51.3311 61.6746 51.4673C61.539 51.6034 61.4317 51.765 61.3589 51.9427C61.286 52.1205 61.2489 52.3109 61.2498 52.503V59.7947C61.2493 60.1814 61.0955 60.5521 60.8221 60.8255C60.5487 61.0989 60.178 61.2527 59.7913 61.2532H55.4166C55.0298 61.2532 54.6588 61.4069 54.3853 61.6804C54.1117 61.9539 53.9581 62.3249 53.9581 62.7117C53.9581 63.0985 54.1117 63.4695 54.3853 63.743C54.6588 64.0165 55.0298 64.1702 55.4166 64.1702H59.7913C60.9511 64.1689 62.063 63.7075 62.8832 62.8874C63.7033 62.0673 64.1646 60.9554 64.166 59.7955V52.503C64.1664 52.3112 64.129 52.1213 64.056 51.944C63.9829 51.7667 63.8757 51.6055 63.7403 51.4698C63.6049 51.334 63.4441 51.2262 63.267 51.1527C63.0899 51.0791 62.9 51.0412 62.7083 51.0411V51.0377ZM26.2498 61.2489H25.9579C25.5711 61.2489 25.2001 61.4026 24.9266 61.6761C24.6531 61.9496 24.4994 62.3206 24.4994 62.7074C24.4994 63.0943 24.6531 63.4652 24.9266 63.7388C25.2001 64.0123 25.5711 64.166 25.9579 64.166H26.2498C26.6366 64.166 27.0076 64.0123 27.2811 63.7388C27.5546 63.4652 27.7083 63.0943 27.7083 62.7074C27.7083 62.3206 27.5546 61.9496 27.2811 61.6761C27.0076 61.4026 26.6366 61.2489 26.2498 61.2489ZM70 39.3747V64.1668C69.9982 65.7133 69.3831 67.196 68.2895 68.2895C67.196 69.3831 65.7133 69.9982 64.1668 70H5.83319C4.28669 69.9982 2.80404 69.3831 1.71049 68.2895C0.616947 67.196 0.0018017 65.7133 2.92263e-08 64.1668V23.4247C7.63551e-05 23.2255 0.040939 23.0285 0.120069 22.8457C0.1992 22.663 0.314921 22.4983 0.460102 22.362C0.605282 22.2257 0.776844 22.1205 0.964214 22.053C1.15158 21.9855 1.35079 21.9571 1.54956 21.9696L5.93616 22.2436C6.48412 22.2774 7.03322 22.1987 7.54962 22.0123C8.06602 21.8259 8.53878 21.5358 8.93878 21.1597C9.33879 20.7837 9.65756 20.3297 9.87546 19.8258C10.0934 19.3219 10.2058 18.7787 10.2058 18.2297C10.2058 17.6807 10.0934 17.1375 9.87546 16.6336C9.65756 16.1296 9.33879 15.6757 8.93878 15.2996C8.53878 14.9236 8.06602 14.6334 7.54962 14.447C7.03322 14.2606 6.48412 14.1819 5.93616 14.2158L1.54956 14.4898C1.35072 14.5022 1.15144 14.4738 0.964014 14.4063C0.776586 14.3387 0.604984 14.2335 0.459791 14.0971C0.314599 13.9606 0.198895 13.7959 0.119816 13.6131C0.0407372 13.4302 -3.98525e-05 13.2331 2.92263e-08 13.0338V5.83319C0.0018017 4.28669 0.616947 2.80404 1.71049 1.71049C2.80404 0.616947 4.28669 0.00180167 5.83319 0L30.6253 0C32.1718 0.00180167 33.6545 0.616947 34.748 1.71049C35.8416 2.80404 36.4567 4.28669 36.4585 5.83319V33.5415H45.0232L44.8445 30.7045C44.7852 29.7585 44.9203 28.8105 45.2414 27.9188C45.5626 27.0271 46.063 26.2106 46.7119 25.5198C47.3608 24.8289 48.1443 24.2784 49.0141 23.902C49.884 23.5256 50.8217 23.3314 51.7695 23.3314C52.7172 23.3314 53.655 23.5256 54.5248 23.902C55.3947 24.2784 56.1782 24.8289 56.827 25.5198C57.4759 26.2106 57.9763 27.0271 58.2975 27.9188C58.6187 28.8105 58.7538 29.7585 58.6944 30.7045L58.5174 33.5415H64.1651C65.7119 33.5428 67.195 34.1578 68.2889 35.2514C69.3828 36.345 69.9982 37.8279 70 39.3747ZM2.91702 33.5415H13.0338C13.233 33.5416 13.43 33.5824 13.6128 33.6616C13.7956 33.7407 13.9602 33.8564 14.0965 34.0016C14.2328 34.1468 14.338 34.3183 14.4055 34.5057C14.473 34.6931 14.5014 34.8923 14.489 35.0911L14.2149 39.4776C14.1811 40.0256 14.2598 40.5747 14.4462 41.0911C14.6326 41.6075 14.9227 42.0803 15.2988 42.4803C15.6748 42.8803 16.1288 43.199 16.6327 43.4169C17.1366 43.6348 17.6798 43.7473 18.2288 43.7473C18.7778 43.7473 19.321 43.6348 19.825 43.4169C20.3289 43.199 20.7828 42.8803 21.1589 42.4803C21.5349 42.0803 21.8251 41.6075 22.0115 41.0911C22.1979 40.5747 22.2766 40.0256 22.2427 39.4776L21.9687 35.0911C21.9563 34.8923 21.9847 34.6931 22.0522 34.5057C22.1197 34.3183 22.2248 34.1468 22.3612 34.0016C22.4975 33.8564 22.6621 33.7407 22.8449 33.6616C23.0276 33.5824 23.2247 33.5416 23.4238 33.5415H33.5415V5.83319C33.5406 5.06005 33.2331 4.31884 32.6864 3.77214C32.1397 3.22545 31.3985 2.91792 30.6253 2.91702H5.83319C5.06005 2.91792 4.31884 3.22545 3.77214 3.77214C3.22545 4.31884 2.91792 5.06005 2.91702 5.83319V11.4809L5.75405 11.3039C6.69997 11.2445 7.64802 11.3796 8.53973 11.7008C9.43143 12.0219 10.2479 12.5224 10.9387 13.1713C11.6296 13.8201 12.1802 14.6036 12.5565 15.4735C12.9329 16.3433 13.1271 17.2811 13.1271 18.2288C13.1271 19.1766 12.9329 20.1143 12.5565 20.9842C12.1802 21.854 11.6296 22.6375 10.9387 23.2864C10.2479 23.9353 9.43143 24.4357 8.53973 24.7569C7.64802 25.078 6.69997 25.2131 5.75405 25.1538L2.91702 24.9768V33.5415ZM35.0911 55.5102L39.4776 55.7842C40.0256 55.8181 40.5747 55.7394 41.0911 55.553C41.6075 55.3666 42.0803 55.0764 42.4803 54.7004C42.8803 54.3243 43.199 53.8704 43.4169 53.3664C43.6348 52.8625 43.7473 52.3193 43.7473 51.7703C43.7473 51.2213 43.6348 50.6781 43.4169 50.1742C43.199 49.6703 42.8803 49.2163 42.4803 48.8403C42.0803 48.4642 41.6075 48.1741 41.0911 47.9877C40.5747 47.8013 40.0256 47.7226 39.4776 47.7564L35.0911 48.0304C34.8923 48.0429 34.6931 48.0145 34.5057 47.947C34.3183 47.8795 34.1468 47.7743 34.0016 47.638C33.8564 47.5017 33.7407 47.337 33.6616 47.1543C33.5824 46.9715 33.5416 46.7745 33.5415 46.5753V36.4585H24.9768L25.1538 39.2955C25.2131 40.2415 25.078 41.1895 24.7569 42.0812C24.4357 42.9729 23.9353 43.7894 23.2864 44.4802C22.6375 45.1711 21.854 45.7216 20.9842 46.098C20.1143 46.4744 19.1766 46.6686 18.2288 46.6686C17.2811 46.6686 16.3433 46.4744 15.4735 46.098C14.6036 45.7216 13.8201 45.1711 13.1713 44.4802C12.5224 43.7894 12.0219 42.9729 11.7008 42.0812C11.3796 41.1895 11.2445 40.2415 11.3039 39.2955L11.4809 36.4585H2.91702V64.1668C2.9177 64.9402 3.22524 65.6818 3.77214 66.2287C4.31904 66.7756 5.06061 67.0832 5.83404 67.0838H33.5415V56.9662C33.5416 56.767 33.5824 56.57 33.6616 56.3872C33.7407 56.2044 33.8564 56.0398 34.0016 55.9035C34.1468 55.7672 34.3183 55.662 34.5057 55.5945C34.6931 55.527 34.8923 55.4978 35.0911 55.5102ZM67.0864 39.3747C67.0857 38.6012 66.7782 37.8597 66.2313 37.3128C65.6844 36.7659 64.9428 36.4583 64.1694 36.4577H56.9662C56.767 36.4576 56.57 36.4167 56.3872 36.3376C56.2044 36.2585 56.0398 36.1427 55.9035 35.9976C55.7672 35.8524 55.662 35.6808 55.5945 35.4934C55.527 35.3061 55.4986 35.1069 55.5111 34.9081L55.7851 30.5215C55.8189 29.9735 55.7402 29.4244 55.5538 28.908C55.3674 28.3916 55.0773 27.9189 54.7012 27.5189C54.3252 27.1189 53.8712 26.8001 53.3673 26.5822C52.8634 26.3643 52.3202 26.2519 51.7712 26.2519C51.2222 26.2519 50.679 26.3643 50.175 26.5822C49.6711 26.8001 49.2172 27.1189 48.8411 27.5189C48.4651 27.9189 48.1749 28.3916 47.9885 28.908C47.8021 29.4244 47.7234 29.9735 47.7573 30.5215L48.0313 34.9081C48.0437 35.1069 48.0153 35.3061 47.9478 35.4934C47.8803 35.6808 47.7752 35.8524 47.6388 35.9976C47.5025 36.1427 47.3379 36.2585 47.1551 36.3376C46.9724 36.4167 46.7753 36.4576 46.5762 36.4577H36.4585V45.0232L39.2955 44.8462C40.2415 44.7869 41.1895 44.922 42.0812 45.2431C42.9729 45.5643 43.7894 46.0647 44.4802 46.7136C45.1711 47.3625 45.7216 48.146 46.098 49.0158C46.4744 49.8857 46.6686 50.8234 46.6686 51.7712C46.6686 52.719 46.4744 53.6567 46.098 54.5265C45.7216 55.3964 45.1711 56.1799 44.4802 56.8287C43.7894 57.4776 42.9729 57.9781 42.0812 58.2992C41.1895 58.6204 40.2415 58.7555 39.2955 58.6961L36.4585 58.5191V67.083H64.1668C64.9402 67.0823 65.6818 66.7748 66.2287 66.2279C66.7756 65.681 67.0832 64.9394 67.0838 64.166L67.0864 39.3747ZM62.7117 43.7494C62.3249 43.7494 61.9539 43.903 61.6804 44.1766C61.4069 44.4501 61.2532 44.8211 61.2532 45.2079V45.4997C61.2532 45.8866 61.4069 46.2575 61.6804 46.5311C61.9539 46.8046 62.3249 46.9583 62.7117 46.9583C63.0985 46.9583 63.4695 46.8046 63.743 46.5311C64.0165 46.2575 64.1702 45.8866 64.1702 45.4997V45.2079C64.1701 45.0161 64.1322 44.8263 64.0586 44.6492C63.9851 44.4721 63.8773 44.3113 63.7415 44.1759C63.6057 44.0405 63.4446 43.9332 63.2673 43.8602C63.09 43.7871 62.9 43.7498 62.7083 43.7502L62.7117 43.7494Z" fill="#FEAE03"/>
</g>
</g>
</g>
<defs>
<clipPath id="clip0_1_43">
<rect width="70" height="70" fill="white"/>
</clipPath>
<clipPath id="clip1_1_43">
<rect width="70" height="70" fill="white"/>
</clipPath>
<clipPath id="clip2_1_43">
<rect width="70" height="70" fill="white"/>
</clipPath>
</defs>
</svg>
