<svg width="70" height="68" viewBox="0 0 70 68" fill="none" xmlns="http://www.w3.org/2000/svg">
<g clip-path="url(#clip0_1_3838)">
<path d="M56.7115 55.4302C51.4448 61.1998 44.2402 64.831 36.4695 65.6323C28.6988 66.4336 20.9047 64.3491 14.5715 59.7757C8.23823 55.2023 3.80814 48.4594 2.12476 40.831C0.441387 33.2026 1.62231 25.2215 5.44266 18.4074C9.26302 11.5934 15.456 6.42235 22.8422 3.87893C30.2285 1.33552 38.2923 1.5974 45.498 4.61471C52.7037 7.63201 58.548 13.194 61.9182 20.2416C65.2884 27.2891 65.949 35.33 63.7742 42.8331L61.0449 37.975M63.777 42.8331L68.0013 38.9686M21.2912 33.9964L29.242 41.95L45.142 26.05" stroke="#FDAC03" stroke-width="2.83272" stroke-linecap="round" stroke-linejoin="round"/>
</g>
<defs>
<clipPath id="clip0_1_3838">
<rect width="70" height="66.4343" fill="white" transform="translate(0 0.782837)"/>
</clipPath>
</defs>
</svg>
