<svg width="8" height="8" viewBox="0 0 8 8" fill="none" xmlns="http://www.w3.org/2000/svg">
<path d="M6.61286 4.68749C6.74958 4.76487 6.838 4.8802 6.87813 5.03347C6.91825 5.18674 6.89968 5.33183 6.8224 5.46874L6.53707 5.95981C6.45979 6.09671 6.34462 6.18525 6.19155 6.22543C6.03848 6.26561 5.89359 6.24701 5.75687 6.16963L4.57096 5.48659V6.85713C4.57096 7.01189 4.51449 7.14582 4.40155 7.25892C4.28861 7.37201 4.15486 7.42856 4.0003 7.42856H3.42964C3.27509 7.42856 3.14134 7.37201 3.0284 7.25892C2.91545 7.14582 2.85898 7.01189 2.85898 6.85713V5.48659L1.67308 6.16963C1.53636 6.24701 1.39146 6.26561 1.2384 6.22543C1.08533 6.18525 0.970156 6.09671 0.892879 5.95981L0.607549 5.46874C0.530272 5.33183 0.511696 5.18674 0.55182 5.03347C0.591945 4.8802 0.680367 4.76487 0.817088 4.68749L2.00299 3.99999L0.817088 3.31249C0.680367 3.23511 0.591945 3.11978 0.55182 2.9665C0.511696 2.81323 0.530272 2.66814 0.607549 2.53124L0.892879 2.04017C0.970156 1.90326 1.08533 1.81472 1.2384 1.77454C1.39146 1.73436 1.53636 1.75296 1.67308 1.83034L2.85898 2.51338V1.14284C2.85898 0.988082 2.91545 0.854153 3.0284 0.741058C3.14134 0.627963 3.27509 0.571415 3.42964 0.571415H4.0003C4.15486 0.571415 4.28861 0.627963 4.40155 0.741058C4.51449 0.854153 4.57096 0.988082 4.57096 1.14284V2.51338L5.75687 1.83034C5.89359 1.75296 6.03848 1.73436 6.19155 1.77454C6.34462 1.81472 6.45979 1.90326 6.53707 2.04017L6.8224 2.53124C6.89968 2.66814 6.91825 2.81323 6.87813 2.9665C6.838 3.11978 6.74958 3.23511 6.61286 3.31249L5.42696 3.99999L6.61286 4.68749Z" fill="#E4E4E4"/>
</svg>
