<svg width="8" height="8" viewBox="0 0 8 8" fill="none" xmlns="http://www.w3.org/2000/svg">
<path d="M6.62202 4.68749C6.75893 4.76487 6.84747 4.8802 6.88765 5.03347C6.92782 5.18674 6.90922 5.33183 6.83184 5.46874L6.54613 5.95981C6.46875 6.09671 6.35342 6.18525 6.20015 6.22543C6.04687 6.26561 5.90178 6.24701 5.76488 6.16963L4.57738 5.48659V6.85713C4.57738 7.01189 4.52083 7.14582 4.40774 7.25892C4.29464 7.37201 4.16071 7.42856 4.00595 7.42856H3.43452C3.27976 7.42856 3.14583 7.37201 3.03274 7.25892C2.91964 7.14582 2.86309 7.01189 2.86309 6.85713V5.48659L1.67559 6.16963C1.53869 6.24701 1.3936 6.26561 1.24032 6.22543C1.08705 6.18525 0.971723 6.09671 0.894342 5.95981L0.608628 5.46874C0.531247 5.33183 0.512646 5.18674 0.552824 5.03347C0.593003 4.8802 0.681545 4.76487 0.818449 4.68749L2.00595 3.99999L0.818449 3.31249C0.681545 3.23511 0.593003 3.11978 0.552824 2.9665C0.512646 2.81323 0.531247 2.66814 0.608628 2.53124L0.894342 2.04017C0.971723 1.90326 1.08705 1.81472 1.24032 1.77454C1.3936 1.73436 1.53869 1.75296 1.67559 1.83034L2.86309 2.51338V1.14284C2.86309 0.988082 2.91964 0.854153 3.03274 0.741058C3.14583 0.627963 3.27976 0.571415 3.43452 0.571415H4.00595C4.16071 0.571415 4.29464 0.627963 4.40774 0.741058C4.52083 0.854153 4.57738 0.988082 4.57738 1.14284V2.51338L5.76488 1.83034C5.90178 1.75296 6.04687 1.73436 6.20015 1.77454C6.35342 1.81472 6.46875 1.90326 6.54613 2.04017L6.83184 2.53124C6.90922 2.66814 6.92782 2.81323 6.88765 2.9665C6.84747 3.11978 6.75893 3.23511 6.62202 3.31249L5.43452 3.99999L6.62202 4.68749Z" fill="#E4E4E4"/>
</svg>
