<svg width="70" height="70" viewBox="0 0 70 70" fill="none" xmlns="http://www.w3.org/2000/svg">
<g clip-path="url(#clip0_1_12)">
<g clip-path="url(#clip1_1_12)">
<path d="M9.90587 12.995C9.52483 13.0281 9.17247 13.211 8.926 13.5034C8.67953 13.7959 8.55906 14.1742 8.59098 14.5553L8.7213 16.1157C8.75395 16.4764 8.92085 16.8117 9.18896 17.0552C9.45707 17.2987 9.80684 17.4327 10.169 17.4306H10.2993C10.4893 17.4142 10.6742 17.3604 10.8433 17.2723C11.0124 17.1841 11.1624 17.0634 11.2846 16.917C11.4069 16.7706 11.4989 16.6015 11.5555 16.4194C11.612 16.2373 11.632 16.0458 11.6142 15.8559L11.4696 14.3098C11.4365 13.9282 11.2531 13.5753 10.9599 13.3287C10.6667 13.0821 10.2876 12.9621 9.90587 12.995Z" fill="#FEAE03"/>
<path d="M65.6825 41.0859L62.2002 37.5994C64.4178 35.0717 65.8826 31.9731 66.4285 28.6551C66.9744 25.3371 66.5795 21.9325 65.2886 18.8276C63.9977 15.7226 61.8626 13.0416 59.1253 11.0886C56.388 9.13558 53.1581 7.98877 49.8021 7.77825L49.9181 5.00388C49.9392 4.54423 49.869 4.08496 49.7115 3.65261C49.554 3.22026 49.3124 2.82341 49.0007 2.485C48.6889 2.14658 48.3132 1.8733 47.8952 1.68096C47.4772 1.48862 47.0252 1.38102 46.5654 1.3644L16.9863 0.0041156C16.5277 -0.0191725 16.0691 0.0484619 15.6367 0.203126C15.2044 0.35779 14.8069 0.59643 14.4672 0.905311C14.1274 1.21419 13.8521 1.58721 13.6571 2.00291C13.4621 2.41861 13.3512 2.86876 13.3309 3.32748L13.1434 7.54705L6.39493 8.13556C5.4773 8.21269 4.62758 8.65016 4.0317 9.35223C3.43581 10.0543 3.14228 10.9638 3.21533 11.8818L7.55008 60.7949C7.63472 61.7163 8.07959 62.567 8.788 63.1623C9.49641 63.7575 10.4111 64.0491 11.3333 63.9736L31.3029 62.2249L37.8925 68.886C38.3655 69.3565 38.9532 69.6953 39.5975 69.8688C40.2412 70.0425 40.9194 70.0425 41.5631 69.8688L59.2501 65.1288C59.8916 64.9579 60.4767 64.6207 60.9461 64.1512C61.4155 63.6818 61.7527 63.0968 61.9236 62.4553L66.6636 44.7834C66.8371 44.135 66.8378 43.4526 66.6657 42.8039C66.4936 42.1552 66.1546 41.5629 65.6825 41.0859ZM60.1774 35.5817L58.3136 33.7178C58.9212 32.9736 59.4446 32.1644 59.874 31.3049L62.3591 32.186C61.7818 33.4075 61.0485 34.5489 60.1774 35.5817ZM49.4557 16.2174C51.1862 16.3509 52.8481 16.9506 54.2651 17.9528C55.6821 18.955 56.8012 20.3222 57.5036 21.9093C58.206 23.4963 58.4655 25.244 58.2544 26.9667C58.0434 28.6894 57.3698 30.3227 56.3051 31.6934L52.7791 28.1674C52.3057 27.6983 51.7181 27.361 51.0743 27.1886C50.4306 27.0162 49.753 27.0148 49.1085 27.1846H48.9463L49.4557 16.2174ZM63.3419 29.4823L60.8845 28.6037C61.146 27.3844 61.2334 26.1341 61.1443 24.8903L63.716 24.4279C63.8657 26.1157 63.7235 27.8167 63.2957 29.4562L63.3419 29.4823ZM63.2578 21.6636L60.6567 22.1403C60.2967 20.9731 59.7713 19.8635 59.0963 18.8455L61.0182 17.0968C62.0005 18.4758 62.7432 20.0106 63.215 21.6367L63.2578 21.6636ZM55.1222 12.0794C56.6495 12.8089 58.0459 13.7855 59.2552 14.9698L57.2324 16.689C56.3357 15.8586 55.3233 15.1625 54.2268 14.6225L55.1222 12.0794ZM52.3478 11.0823L51.4668 13.5674C50.8337 13.4343 50.191 13.3522 49.5449 13.322L49.6609 10.7208C50.565 10.761 51.4635 10.8837 52.3453 11.0873L52.3478 11.0823ZM16.2204 3.45779C16.2239 3.37791 16.2431 3.29949 16.2769 3.22705C16.3108 3.1546 16.3586 3.08956 16.4177 3.03566C16.4767 2.98175 16.5458 2.94005 16.6211 2.91294C16.6963 2.88583 16.7761 2.87386 16.856 2.8777L46.4636 4.32289C46.5429 4.32413 46.6211 4.34137 46.6935 4.37357C46.766 4.40578 46.8312 4.45229 46.8852 4.51032C46.9392 4.56834 46.9809 4.63668 47.0079 4.71124C47.0349 4.7858 47.0465 4.86503 47.042 4.94418L45.9726 28.064L44.5274 28.4541L42.793 8.57105C42.7084 7.64965 42.2635 6.79889 41.5551 6.20366C40.8467 5.60844 39.932 5.31686 39.0098 5.39229L16.0472 7.31585L16.2204 3.45779ZM11.0298 61.1396C10.8734 61.1517 10.7183 61.1028 10.5972 61.0031C10.476 60.9034 10.3982 60.7607 10.3799 60.6049L6.10236 11.6918C6.09043 11.5331 6.14128 11.3761 6.24396 11.2546C6.34663 11.1331 6.49293 11.0567 6.65135 11.0419L39.2645 8.15153C39.3425 8.14511 39.4209 8.15429 39.4952 8.17853C39.5696 8.20277 39.6383 8.24157 39.6975 8.29268C39.7567 8.34379 39.8051 8.40618 39.8399 8.47621C39.8747 8.54623 39.8951 8.62249 39.9001 8.70052L41.6959 29.1081L36.8693 30.3944C36.5151 29.9296 36.113 29.5032 35.6696 29.1224L24.8908 20.1183C24.7457 19.9959 24.5779 19.9033 24.3969 19.8457C24.216 19.7881 24.0255 19.7668 23.8363 19.7829C23.6472 19.7989 23.463 19.8521 23.2944 19.9394C23.1258 20.0267 22.976 20.1463 22.8537 20.2915L13.8042 31.0569C12.5036 32.5791 11.8391 34.5436 11.9486 36.5428C12.0582 38.5419 12.9335 40.4221 14.3927 41.7929C15.2835 42.5848 16.3474 43.157 17.4992 43.4636C18.651 43.7702 19.8585 43.8027 21.0251 43.5584C20.6415 44.2758 20.1546 44.933 19.5799 45.5089C19.373 45.7073 19.2295 45.9625 19.1674 46.2424C19.1053 46.5222 19.1274 46.8142 19.231 47.0815C19.3346 47.3488 19.5149 47.5794 19.7494 47.7444C19.9838 47.9093 20.2619 48.0012 20.5484 48.0084H20.6788L25.1438 47.6183L23.9441 52.3431C23.7806 52.9732 23.7811 53.6346 23.9454 54.2645C24.1098 54.8943 24.4326 55.4716 24.8832 55.9414L28.6009 59.5666L11.0298 61.1396ZM25.9887 44.6404L23.6347 44.8431C23.7986 44.5668 23.9482 44.2822 24.0828 43.9906C24.3081 43.5453 24.3941 43.0425 24.3296 42.5477C24.2651 42.0528 24.0532 41.5889 23.7213 41.2162C23.3987 40.8521 22.9745 40.5928 22.5033 40.4718C22.0321 40.3507 21.5355 40.3734 21.0773 40.5369C20.28 40.8302 19.4181 40.9017 18.5834 40.7439C17.7487 40.5861 16.9724 40.2048 16.3373 39.6407C15.4374 38.771 14.9057 37.5891 14.8519 36.3389C14.7981 35.0886 15.2262 33.8654 16.0481 32.9217L24.1543 23.2534L33.7057 31.273L31.3794 31.8943C30.7341 32.0667 30.1457 32.4062 29.6733 32.8785C29.201 33.3508 28.8616 33.9393 28.6891 34.5846L25.9887 44.6404ZM59.1366 61.6911C59.0944 61.8466 59.0121 61.9885 58.8981 62.1025C58.7841 62.2165 58.6423 62.2987 58.4868 62.341L40.7854 67.0809C40.6283 67.1119 40.4657 67.1016 40.3138 67.0509C40.1619 67.0002 40.0257 66.9109 39.9186 66.7917L26.9858 53.7866C26.8682 53.6763 26.7831 53.5358 26.7398 53.3804C26.6965 53.2251 26.6967 53.0608 26.7403 52.9056L31.4803 35.2185C31.5226 35.0629 31.6048 34.9211 31.7188 34.8071C31.8328 34.6931 31.9746 34.6109 32.1302 34.5686L49.8021 29.9447C49.9541 29.9084 50.1125 29.9084 50.2645 29.9447C50.4235 29.9887 50.5684 30.0733 50.6849 30.1902L63.6883 43.1952C63.8046 43.3065 63.8887 43.4471 63.9319 43.6021C63.9751 43.7571 63.9757 43.9209 63.9338 44.0763L59.1366 61.6911Z" fill="#FEAE03"/>
<path d="M45.1201 46.2438L37.5915 38.7328C37.4567 38.5961 37.2964 38.4874 37.1196 38.4127C36.9429 38.3381 36.7531 38.299 36.5612 38.2976C36.3693 38.2963 36.179 38.3328 36.0013 38.405C35.8235 38.4772 35.6616 38.5837 35.525 38.7185C35.3884 38.8532 35.2796 39.0136 35.205 39.1903C35.1303 39.3671 35.0912 39.5569 35.0899 39.7488C35.0886 39.9407 35.125 40.1309 35.1972 40.3087C35.2694 40.4865 35.376 40.6483 35.5107 40.785L43.0394 48.2993C43.2388 48.5036 43.3822 48.7558 43.4558 49.0316C43.5294 49.3074 43.5308 49.5975 43.4597 49.874L40.6988 60.1442C40.6487 60.3283 40.6354 60.5204 40.6599 60.7096C40.6844 60.8988 40.7461 61.0813 40.8415 61.2465C40.9368 61.4117 41.0639 61.5564 41.2155 61.6723C41.367 61.7881 41.54 61.8728 41.7245 61.9215C41.8493 61.9365 41.9755 61.9365 42.1003 61.9215C42.4265 61.9327 42.747 61.8331 43.0094 61.6389C43.2718 61.4447 43.4608 61.1674 43.5455 60.8521L46.3064 50.5785C46.5051 49.8153 46.5001 49.0134 46.292 48.2528C46.0838 47.4921 45.6797 46.7994 45.1201 46.2438Z" fill="#FEAE03"/>
<path d="M58.6885 44.9314C58.5864 44.5646 58.3437 44.2529 58.0132 44.064C57.6826 43.875 57.2908 43.8242 56.923 43.9226L50.2325 45.6998C49.891 45.7949 49.5961 46.0117 49.4036 46.3094C49.2111 46.6071 49.1343 46.965 49.1877 47.3154C49.2411 47.6659 49.421 47.9847 49.6935 48.2115C49.9659 48.4383 50.312 48.5575 50.6663 48.5465C50.7912 48.5607 50.9173 48.5607 51.0421 48.5465L57.7183 46.7549C57.9029 46.7007 58.0748 46.6102 58.2239 46.4886C58.373 46.3671 58.4964 46.217 58.5868 46.0472C58.6771 45.8773 58.7327 45.6911 58.7501 45.4995C58.7676 45.3079 58.7466 45.1148 58.6885 44.9314Z" fill="#FEAE03"/>
<path d="M35.6706 56.5182C35.5489 57.0858 35.5641 57.6742 35.715 58.2347C35.8659 58.7952 36.1481 59.3118 36.5382 59.7416C37.2898 60.5074 38.128 60.2905 38.4021 59.2506C38.5238 58.6832 38.5086 58.095 38.3579 57.5347C38.2071 56.9743 37.9252 56.4579 37.5353 56.0281C36.7837 55.2319 35.9455 55.4926 35.6706 56.5182Z" fill="#FEAE03"/>
<path d="M34.6144 46.0125C34.7363 45.4453 34.7214 44.8572 34.571 44.2968C34.4206 43.7365 34.1389 43.22 33.7493 42.79C32.9977 42.0384 32.1595 42.2553 31.8854 43.281C31.7638 43.8484 31.7789 44.4366 31.9297 44.9969C32.0804 45.5573 32.3624 46.0737 32.7522 46.5035C33.5593 47.2702 34.3378 47.0533 34.6144 46.0125Z" fill="#FEAE03"/>
<path d="M36.4506 52.6298C36.5722 52.0625 36.5571 51.4743 36.4064 50.9139C36.2556 50.3536 35.9737 49.8371 35.5838 49.4074C34.8322 48.6557 33.994 48.8727 33.7199 49.8983C33.5983 50.4657 33.6134 51.0539 33.7641 51.6142C33.9149 52.1746 34.1968 52.691 34.5867 53.1208C35.3946 53.8875 36.2328 53.6706 36.4506 52.6298Z" fill="#FEAE03"/>
<path d="M49.4549 39.7265C49.6528 39.6921 49.8361 39.6003 49.9823 39.4626C50.1285 39.3249 50.231 39.1474 50.2772 38.952C50.3234 38.7565 50.3112 38.5518 50.2422 38.3633C50.1731 38.1747 50.0502 38.0106 49.8887 37.8912C49.4583 37.5024 48.9418 37.2211 48.3817 37.0704C47.8215 36.9198 47.2337 36.904 46.6663 37.0244C46.451 37.0336 46.2443 37.1115 46.0765 37.2466C45.9087 37.3817 45.7886 37.567 45.7337 37.7754C45.6788 37.9837 45.6921 38.2042 45.7716 38.4044C45.851 38.6047 45.9925 38.7743 46.1753 38.8883C46.6135 39.2824 47.1406 39.5646 47.7115 39.711C48.2824 39.8574 48.8803 39.8636 49.4541 39.729L49.4549 39.7265Z" fill="#FEAE03"/>
<path d="M58.1219 49.3368C57.5701 49.5174 57.0689 49.8265 56.6597 50.2385C56.2505 50.6505 55.9449 51.1537 55.7679 51.7068C55.493 52.7324 56.1151 53.3394 57.2131 53.0654C57.7644 52.8837 58.265 52.5743 58.6741 52.1624C59.0832 51.7506 59.3892 51.2479 59.5671 50.6954C59.8303 49.6689 59.209 49.0619 58.1219 49.3368Z" fill="#FEAE03"/>
<path d="M48.2704 58.9151C47.7208 59.0952 47.2213 59.4021 46.8124 59.8111C46.4034 60.22 46.0965 60.7195 45.9164 61.2691C45.6414 62.2948 46.2636 62.9018 47.3616 62.6277C47.9146 62.4508 48.4178 62.1451 48.8298 61.7359C49.2418 61.3267 49.5509 60.8256 49.7315 60.2737C49.9316 59.2329 49.3103 58.641 48.2704 58.9151Z" fill="#FEAE03"/>
</g>
</g>
<defs>
<clipPath id="clip0_1_12">
<rect width="70" height="70" fill="white"/>
</clipPath>
<clipPath id="clip1_1_12">
<rect width="63.5912" height="70" fill="white" transform="translate(3.20435)"/>
</clipPath>
</defs>
</svg>
