<svg width="70" height="70" viewBox="0 0 70 70" fill="none" xmlns="http://www.w3.org/2000/svg">
<g clip-path="url(#clip0_1_55)">
<g clip-path="url(#clip1_1_55)">
<path d="M53.8105 13.399C55.1367 13.4047 56.4348 13.0166 57.5403 12.2839C58.6458 11.5512 59.509 10.5069 60.0205 9.28322C60.532 8.05955 60.6687 6.71161 60.4135 5.41014C60.1582 4.10867 59.5224 2.91225 58.5866 1.97243C57.6508 1.03261 56.4571 0.391685 55.1568 0.130848C53.8564 -0.129989 52.5079 0.000997588 51.282 0.507215C50.0562 1.01343 49.0082 1.8721 48.2708 2.97445C47.5333 4.07679 47.1397 5.37321 47.1397 6.69947C47.1374 8.47201 47.8386 10.173 49.0893 11.4291C50.34 12.6851 52.038 13.3936 53.8105 13.399ZM53.8105 3.46449C54.4543 3.45925 55.0852 3.64553 55.6229 3.99966C56.1606 4.35379 56.5809 4.85978 56.8303 5.45333C57.0798 6.04688 57.1472 6.7012 57.0239 7.33313C56.9006 7.96507 56.5923 8.54609 56.138 9.00236C55.6838 9.45864 55.1041 9.76958 54.4727 9.89565C53.8414 10.0217 53.1868 9.95726 52.5921 9.71044C51.9974 9.46361 51.4896 9.04558 51.1331 8.50945C50.7766 7.97333 50.5875 7.34331 50.5899 6.69947C50.591 5.84435 50.9303 5.02437 51.5336 4.41836C52.1369 3.81235 52.9554 3.46947 53.8105 3.46449Z" fill="#FEAE03"/>
<path d="M14.4755 56.6009C13.1493 56.5952 11.8512 56.9833 10.7457 57.716C9.6402 58.4487 8.77704 59.493 8.26556 60.7167C7.75409 61.9403 7.61731 63.2883 7.87257 64.5897C8.12782 65.8912 8.76362 67.0876 9.69941 68.0275C10.6352 68.9673 11.8289 69.6082 13.1292 69.869C14.4296 70.1299 15.7781 69.9989 17.004 69.4927C18.2298 68.9864 19.2779 68.1278 20.0153 67.0254C20.7527 65.9231 21.1464 64.6267 21.1464 63.3004C21.1486 61.5279 20.4474 59.8269 19.1967 58.5708C17.946 57.3148 16.2481 56.6063 14.4755 56.6009ZM14.4755 66.5497C13.8322 66.555 13.2019 66.369 12.6644 66.0154C12.127 65.6618 11.7067 65.1565 11.4569 64.5637C11.207 63.9709 11.139 63.3172 11.2612 62.6856C11.3835 62.054 11.6907 61.4729 12.1437 61.0162C12.5968 60.5594 13.1753 60.2475 13.8059 60.1201C14.4364 59.9926 15.0907 60.0554 15.6855 60.3003C16.2804 60.5453 16.7891 60.9615 17.1471 61.496C17.505 62.0305 17.6962 62.6594 17.6962 63.3027C17.6982 64.1599 17.3604 64.983 16.7567 65.5916C16.153 66.2002 15.3328 66.5448 14.4755 66.5497Z" fill="#FEAE03"/>
<path d="M30.9655 29.688C31.2902 30.0106 31.7295 30.1914 32.1873 30.1909C32.6445 30.1887 33.0828 30.0083 33.4091 29.688C33.5697 29.5276 33.6972 29.3371 33.7842 29.1274C33.8711 28.9176 33.9159 28.6928 33.9159 28.4658C33.9159 28.2388 33.8711 28.014 33.7842 27.8042C33.6972 27.5945 33.5697 27.404 33.4091 27.2436L29.8146 23.6492L33.4091 20.0548C33.7283 19.7296 33.9063 19.2915 33.9042 18.8358C33.9021 18.3802 33.7202 17.9437 33.398 17.6215C33.0757 17.2993 32.6393 17.1173 32.1836 17.1153C31.7279 17.1132 31.2899 17.2911 30.9647 17.6104L27.3703 21.2048L23.7758 17.6104C23.4507 17.2911 23.0126 17.1132 22.5569 17.1153C22.1013 17.1173 21.6648 17.2993 21.3426 17.6215C21.0204 17.9437 20.8384 18.3802 20.8363 18.8358C20.8343 19.2915 21.0122 19.7296 21.3315 20.0548L24.9259 23.6492L21.3315 27.2436C21.0903 27.4851 20.9261 27.7926 20.8596 28.1274C20.7932 28.4622 20.8276 28.8091 20.9584 29.1244C21.0892 29.4396 21.3105 29.709 21.5944 29.8984C21.8783 30.0879 22.212 30.1889 22.5533 30.1886C23.0105 30.1865 23.4489 30.0061 23.7751 29.6857L27.3695 26.0913L30.9655 29.688Z" fill="#FEAE03"/>
<path d="M59.8492 45.2868C59.6888 45.1261 59.4983 44.9986 59.2886 44.9117C59.0789 44.8247 58.8541 44.7799 58.6271 44.7799C58.4 44.7799 58.1752 44.8247 57.9655 44.9117C57.7558 44.9986 57.5653 45.1261 57.4049 45.2868L53.8105 48.8812L50.216 45.2868C49.8909 44.9675 49.4528 44.7895 48.9971 44.7916C48.5414 44.7937 48.105 44.9756 47.7828 45.2979C47.4605 45.6201 47.2786 46.0565 47.2765 46.5122C47.2744 46.9679 47.4524 47.406 47.7717 47.7311L51.3661 51.3256L47.7717 54.92C47.5305 55.1614 47.3662 55.469 47.2998 55.8038C47.2334 56.1385 47.2678 56.4855 47.3986 56.8007C47.5293 57.116 47.7507 57.3854 48.0346 57.5748C48.3185 57.7642 48.6522 57.8652 48.9935 57.865C49.4507 57.8629 49.889 57.6824 50.2153 57.3621L53.8097 53.7677L57.4041 57.3621C57.7289 57.6847 58.1682 57.8655 58.6259 57.865C59.0832 57.8629 59.5215 57.6824 59.8477 57.3621C60.0084 57.2017 60.1359 57.0112 60.2229 56.8015C60.3098 56.5917 60.3546 56.3669 60.3546 56.1399C60.3546 55.9129 60.3098 55.6881 60.2229 55.4783C60.1359 55.2686 60.0084 55.0781 59.8477 54.9177L56.2533 51.3233L59.8477 47.7289C60.1717 47.4052 60.3539 46.9661 60.3542 46.5081C60.3545 46.0502 60.1729 45.6108 59.8492 45.2868Z" fill="#FEAE03"/>
<path d="M39.4047 54.1859C39.2443 54.0252 39.0538 53.8978 38.844 53.8108C38.6343 53.7238 38.4095 53.6791 38.1825 53.6791C37.9555 53.6791 37.7307 53.7238 37.5209 53.8108C37.3112 53.8978 37.1207 54.0252 36.9603 54.1859L33.3659 57.7803L29.7715 54.1859C29.4463 53.8666 29.0082 53.6887 28.5525 53.6908C28.0968 53.6928 27.6604 53.8748 27.3382 54.197C27.016 54.5192 26.834 54.9557 26.832 55.4114C26.8299 55.867 27.0078 56.3051 27.3271 56.6303L30.9215 60.2247L27.3271 63.8191C27.0859 64.0606 26.9217 64.3681 26.8552 64.7029C26.7888 65.0377 26.8232 65.3846 26.954 65.6999C27.0848 66.0151 27.3061 66.2845 27.59 66.4739C27.8739 66.6634 28.2076 66.7644 28.5489 66.7641C29.0061 66.762 29.4444 66.5816 29.7707 66.2612L33.3651 62.6668L36.9596 66.2612C37.2843 66.5838 37.7236 66.7647 38.1814 66.7641C38.6386 66.762 39.0769 66.5816 39.4032 66.2612C39.5638 66.1008 39.6913 65.9103 39.7783 65.7006C39.8652 65.4909 39.91 65.2661 39.91 65.039C39.91 64.812 39.8652 64.5872 39.7783 64.3775C39.6913 64.1678 39.5638 63.9773 39.4032 63.8169L35.8087 60.2224L39.4032 56.628C39.7208 56.301 39.8987 55.8631 39.899 55.4073C39.8992 54.9514 39.722 54.5133 39.4047 54.1859Z" fill="#FEAE03"/>
<path d="M28.234 41.218C28.5753 41.218 28.9089 41.1168 29.1926 40.9272C29.4764 40.7376 29.6976 40.4682 29.8281 40.1529C29.9587 39.8376 29.9929 39.4906 29.9263 39.1559C29.8598 38.8212 29.6954 38.5138 29.4541 38.2725C29.2128 38.0311 28.9054 37.8668 28.5706 37.8003C28.2359 37.7337 27.889 37.7678 27.5737 37.8984C27.2584 38.029 26.9889 38.2502 26.7993 38.5339C26.6097 38.8177 26.5085 39.1513 26.5085 39.4926C26.5097 39.9498 26.6919 40.388 27.0152 40.7113C27.3386 41.0347 27.7768 41.2169 28.234 41.218Z" fill="#FEAE03"/>
<path d="M15.4527 46.3077C15.7347 46.4932 16.0643 46.5932 16.4019 46.5954C16.8163 46.5966 17.2173 46.4487 17.5316 46.1787C17.846 45.9087 18.0528 45.5346 18.1141 45.1248C18.1755 44.7149 18.0873 44.2967 17.8658 43.9465C17.6443 43.5962 17.3042 43.3374 16.9076 43.2172C16.511 43.097 16.0844 43.1234 15.7058 43.2918C15.3271 43.4601 15.0216 43.759 14.8451 44.1339C14.6686 44.5088 14.6328 44.9348 14.7444 45.3339C14.8559 45.733 15.1073 46.0786 15.4527 46.3077Z" fill="#FEAE03"/>
<path d="M20.8429 38.9323C20.4813 39.092 20.1857 39.3713 20.006 39.7234C19.8262 40.0754 19.7732 40.4786 19.8559 40.8651C19.9387 41.2516 20.152 41.5979 20.4601 41.8455C20.7682 42.0931 21.1522 42.227 21.5474 42.2247C21.7896 42.2257 22.0294 42.1769 22.252 42.0812C22.4592 41.9903 22.6464 41.8593 22.8027 41.6956C22.9591 41.532 23.0816 41.3391 23.1631 41.128C23.2446 40.9169 23.2835 40.6917 23.2776 40.4655C23.2717 40.2392 23.2211 40.0164 23.1287 39.8098C22.9408 39.3913 22.5949 39.0642 22.1667 38.8998C21.7384 38.7354 21.2625 38.7471 20.8429 38.9323Z" fill="#FEAE03"/>
<path d="M35.0634 41.2188C36.0163 41.2188 36.7888 40.4463 36.7888 39.4933C36.7888 38.5403 36.0163 37.7678 35.0634 37.7678C34.1104 37.7678 33.3379 38.5403 33.3379 39.4933C33.3379 40.4463 34.1104 41.2188 35.0634 41.2188Z" fill="#FEAE03"/>
<path d="M14.4755 53.0502C14.8726 53.0485 15.2569 52.9093 15.563 52.6562C15.869 52.4031 16.0779 52.0518 16.1542 51.662C16.2304 51.2723 16.1692 50.8681 15.981 50.5184C15.7929 50.1686 15.4893 49.8949 15.1221 49.7437C14.7548 49.5925 14.3465 49.5733 13.9667 49.6892C13.5868 49.8051 13.2589 50.0491 13.0386 50.3796C12.8184 50.7101 12.7194 51.1067 12.7586 51.5019C12.7978 51.8971 12.9728 52.2665 13.2537 52.5473C13.5791 52.8689 14.0179 53.0495 14.4755 53.0502Z" fill="#FEAE03"/>
<path d="M61.6888 24.4692L55.018 17.7983C54.8575 17.6377 54.667 17.5102 54.4573 17.4232C54.2476 17.3363 54.0228 17.2915 53.7958 17.2915C53.5687 17.2915 53.3439 17.3363 53.1342 17.4232C52.9245 17.5102 52.734 17.6377 52.5736 17.7983L45.9005 24.4692C45.7376 24.6291 45.608 24.8198 45.5192 25.0301C45.4303 25.2405 45.3841 25.4663 45.383 25.6946C45.382 25.923 45.4262 26.1492 45.5131 26.3603C45.6 26.5715 45.7278 26.7633 45.8893 26.9248C46.0507 27.0862 46.2426 27.2141 46.4537 27.301C46.6648 27.3878 46.8911 27.432 47.1194 27.431C47.3477 27.43 47.5736 27.3837 47.7839 27.2949C47.9942 27.2061 48.1849 27.0765 48.3448 26.9135L52.0684 23.19V27.6453C52.0548 30.3367 50.9736 32.9128 49.0623 34.8077C47.1509 36.7027 44.5656 37.7616 41.8741 37.752C41.6445 37.7472 41.4163 37.7882 41.2028 37.8728C40.9893 37.9573 40.7948 38.0836 40.6308 38.2443C40.4667 38.4049 40.3363 38.5967 40.2474 38.8084C40.1584 39.0201 40.1125 39.2474 40.1125 39.4771C40.1125 39.7067 40.1584 39.934 40.2474 40.1457C40.3363 40.3574 40.4667 40.5492 40.6308 40.7098C40.7948 40.8705 40.9893 40.9968 41.2028 41.0814C41.4163 41.1659 41.6445 41.207 41.8741 41.2022C45.4799 41.209 48.9411 39.7855 51.4988 37.244C54.0565 34.7024 55.5019 31.2502 55.5178 27.6445V23.1734L59.2444 26.9007C59.5692 27.2233 60.0085 27.4042 60.4662 27.4036C60.9234 27.4015 61.3618 27.221 61.688 26.9007C61.8489 26.7418 61.9767 26.5525 62.0639 26.3438C62.1511 26.1351 62.196 25.9113 62.1961 25.6851C62.1961 25.459 62.1513 25.235 62.0643 25.0263C61.9772 24.8176 61.8496 24.6282 61.6888 24.4692Z" fill="#FEAE03"/>
</g>
</g>
<defs>
<clipPath id="clip0_1_55">
<rect width="70" height="70" fill="white"/>
</clipPath>
<clipPath id="clip1_1_55">
<rect width="54.3907" height="70" fill="white" transform="translate(7.80469)"/>
</clipPath>
</defs>
</svg>
