<svg width="70" height="66" viewBox="0 0 70 66" fill="none" xmlns="http://www.w3.org/2000/svg">
<g clip-path="url(#clip0_1_3894)">
<path d="M38.2014 9.2168C38.2014 9.2168 36.0364 33.8601 5.72266 53.5744" stroke="#FDAC03" stroke-width="2.83843" stroke-linecap="round"/>
<path d="M1.41895 9.2168H47.5797" stroke="#FDAC03" stroke-width="2.83843" stroke-linecap="round"/>
<path d="M24.4922 1.76025V9.21682" stroke="#FDAC03" stroke-width="2.83843" stroke-linecap="round"/>
<path d="M14.1533 19.3125C14.1533 19.3125 25.578 39.2731 34.7774 45.4041" stroke="#FDAC03" stroke-width="2.83843" stroke-linecap="round"/>
<path d="M36.875 63.7948L51.4092 29.9607C51.5038 29.747 51.6584 29.5655 51.8542 29.438C52.05 29.3105 52.2786 29.2427 52.5123 29.2427C52.7459 29.2427 52.9746 29.3105 53.1704 29.438C53.3662 29.5655 53.5208 29.747 53.6154 29.9607L68.1332 63.7948" stroke="#FDAC03" stroke-width="2.83843" stroke-linecap="round"/>
<path d="M41.8818 52.1296H63.1417" stroke="#FDAC03" stroke-width="2.83843" stroke-linecap="round"/>
</g>
<defs>
<clipPath id="clip0_1_3894">
<rect width="70" height="65.318" fill="white" transform="translate(0 0.341064)"/>
</clipPath>
</defs>
</svg>
