<svg width="22" height="18" viewBox="0 0 22 18" fill="none" xmlns="http://www.w3.org/2000/svg">
<path d="M20.4383 15.4643V6.0357C20.1764 6.33035 19.8941 6.60043 19.5912 6.84597C17.3978 8.53198 15.6545 9.91517 14.3613 10.9955C13.9439 11.3475 13.6043 11.6216 13.3424 11.8181C13.0804 12.0145 12.7265 12.213 12.2804 12.4135C11.8344 12.614 11.4149 12.7143 11.022 12.7143H11.0098H10.9975C10.6046 12.7143 10.1852 12.614 9.73912 12.4135C9.29306 12.213 8.93908 12.0145 8.67718 11.8181C8.41527 11.6216 8.07561 11.3475 7.6582 10.9955C6.36505 9.91517 4.62174 8.53198 2.42829 6.84597C2.12546 6.60043 1.8431 6.33035 1.58119 6.0357V15.4643C1.58119 15.5707 1.62007 15.6627 1.69782 15.7405C1.77558 15.8183 1.86765 15.8571 1.97405 15.8571H20.0455C20.1519 15.8571 20.244 15.8183 20.3217 15.7405C20.3995 15.6627 20.4383 15.5707 20.4383 15.4643ZM20.4383 2.56137C20.4383 2.545 20.4383 2.49999 20.4383 2.42633C20.4383 2.35267 20.4383 2.29742 20.4383 2.26059C20.4383 2.22376 20.4363 2.17056 20.4322 2.10099C20.4281 2.03142 20.4158 1.98027 20.3954 1.94753C20.3749 1.91479 20.3524 1.87796 20.3278 1.83704C20.3033 1.79612 20.2665 1.76543 20.2174 1.74497C20.1682 1.7245 20.111 1.71427 20.0455 1.71427H1.97405C1.86765 1.71427 1.77558 1.75315 1.69782 1.8309C1.62007 1.90866 1.58119 2.00073 1.58119 2.10713C1.58119 3.48213 2.18276 4.64433 3.38588 5.59374C4.96549 6.83779 6.60649 8.13503 8.30887 9.48548C8.35798 9.5264 8.50121 9.64712 8.73856 9.84764C8.97591 10.0482 9.16416 10.2016 9.30329 10.308C9.44243 10.4144 9.62453 10.5433 9.84961 10.6947C10.0747 10.8462 10.2813 10.9587 10.4696 11.0324C10.6578 11.106 10.8338 11.1428 10.9975 11.1428H11.0098H11.022C11.1857 11.1428 11.3617 11.106 11.5499 11.0324C11.7382 10.9587 11.9448 10.8462 12.1699 10.6947C12.395 10.5433 12.5771 10.4144 12.7162 10.308C12.8554 10.2016 13.0436 10.0482 13.281 9.84764C13.5183 9.64712 13.6616 9.5264 13.7107 9.48548C15.413 8.13503 17.054 6.83779 18.6336 5.59374C19.0756 5.2418 19.4869 4.76915 19.8675 4.17577C20.248 3.58239 20.4383 3.04426 20.4383 2.56137ZM22.0098 2.10713V15.4643C22.0098 16.0045 21.8174 16.4669 21.4328 16.8515C21.0481 17.2362 20.5857 17.4286 20.0455 17.4286H1.97405C1.43387 17.4286 0.971447 17.2362 0.586775 16.8515C0.202102 16.4669 0.00976562 16.0045 0.00976562 15.4643V2.10713C0.00976562 1.56695 0.202102 1.10453 0.586775 0.719855C0.971447 0.335182 1.43387 0.142846 1.97405 0.142846H20.0455C20.5857 0.142846 21.0481 0.335182 21.4328 0.719855C21.8174 1.10453 22.0098 1.56695 22.0098 2.10713Z" fill="#151515"/>
</svg>
