<svg width="389" height="76" viewBox="0 0 389 76" fill="none" xmlns="http://www.w3.org/2000/svg">
<g clip-path="url(#clip0_1_208)">
<g clip-path="url(#clip1_1_208)">
<g clip-path="url(#clip2_1_208)">
<path d="M25.8074 70.7573L38.2964 36.4624L2.83664 48.5631C-1.17447 49.922 1.4135 46.6843 1.4135 46.6843L6.91353 39.7612C7.76545 38.7655 8.81516 37.9579 9.99597 37.3897C11.1768 36.8216 12.4629 36.5052 13.7725 36.4608C12.4629 36.4164 11.1768 36.1001 9.99597 35.5319C8.81516 34.9637 7.76545 34.1562 6.91353 33.1605L1.4135 26.2373C1.4135 26.2373 -1.17447 22.937 2.83664 24.3586L38.2964 36.4593V60.2066C38.2458 61.4937 37.9192 62.7549 37.3387 63.9048C36.7582 65.0547 35.9374 66.0664 34.9319 66.8714L27.8146 72.1773C27.8146 72.1131 24.3843 74.6369 25.809 70.7542M38.2979 12.7104V36.4577L25.809 2.16279C24.3858 -1.71995 27.7504 0.803836 27.7504 0.803836L34.8677 6.10971C35.8897 6.8899 36.7271 7.88598 37.32 9.02693C37.913 10.1679 38.2469 11.4256 38.2979 12.7104Z" fill="#D2232A"/>
<path d="M206.214 56.067H209.514L211.131 51.666H217.344L219.027 56.067H222.457L215.468 38.5321H212.946L206.214 56.067ZM212.038 49.1438L213.333 45.7136L214.239 42.9957H214.303C214.544 43.921 214.847 44.8291 215.21 45.7136L216.439 49.2081H212.04L212.038 49.1438ZM231.192 56.3911C234.428 56.3911 236.692 55.2952 237.727 53.0266C238.201 51.9475 238.422 50.7741 238.373 49.5963V38.6605H235.203V49.338C235.241 50.1603 235.086 50.9802 234.75 51.7318C234.368 52.3285 233.842 52.8194 233.22 53.1594C232.598 53.4994 231.9 53.6775 231.192 53.6775C230.483 53.6775 229.786 53.4994 229.164 53.1594C228.542 52.8194 228.016 52.3285 227.633 51.7318C227.304 51.0009 227.149 50.2033 227.181 49.4022V38.6605H224.01V49.5963C223.968 50.7524 224.189 51.9029 224.657 52.9608C225.692 55.2263 227.957 56.3911 231.192 56.3911ZM245.88 56.067H249.051V41.3142H253.71L254.551 38.5963H240.773V41.3142H245.885V56.067H245.88ZM256.816 56.067H259.987V48.4957H268.335V56.067H271.571V38.5963H268.335V45.8435H259.987V38.6605H256.816V56.067ZM283.8 56.3911C285.57 56.4156 287.307 55.9132 288.791 54.9477C290.275 53.9821 291.438 52.5971 292.132 50.9687C292.827 49.3404 293.021 47.5423 292.691 45.8031C292.361 44.064 291.521 42.4623 290.278 41.2019C289.035 39.9414 287.445 39.0791 285.71 38.7246C283.976 38.3702 282.175 38.5395 280.538 39.2112C278.9 39.8828 277.499 41.0264 276.512 42.4966C275.526 43.9667 275 45.6969 274.999 47.4671C274.933 48.6459 275.114 49.8257 275.531 50.9303C275.948 52.0349 276.592 53.0399 277.421 53.8807C278.25 54.7214 279.246 55.3791 280.344 55.8115C281.443 56.2439 282.62 56.4413 283.8 56.3911ZM283.8 53.6732C280.564 53.6732 278.43 51.3435 278.43 47.3966C278.43 43.4497 280.629 41.12 283.8 41.12C287.1 41.12 289.17 43.5139 289.17 47.3966C289.17 51.4093 286.97 53.6732 283.8 53.6732ZM295.965 56.067H299.135V49.2722H300.624C301.076 49.4022 301.659 50.113 302.503 51.666L305.026 56.067H308.651L305.739 50.9553C305.242 49.8447 304.488 48.8684 303.539 48.1074V48.0432C304.535 47.7807 305.414 47.1918 306.036 46.3707C306.658 45.5496 306.987 44.5437 306.969 43.5139C307.015 42.6248 306.792 41.7426 306.331 40.9812C305.869 40.2199 305.19 39.6143 304.381 39.2429C303.202 38.7132 301.915 38.4691 300.624 38.5305H295.835V56.0654L295.965 56.067ZM299.201 46.6843V41.2484H300.69C301.378 41.1849 302.066 41.3687 302.631 41.7666C303.003 41.9971 303.306 42.3223 303.511 42.7088C303.716 43.0954 303.814 43.5293 303.796 43.9663C303.826 44.4303 303.727 44.8935 303.51 45.3047C303.293 45.7159 302.967 46.059 302.567 46.296C301.967 46.6044 301.3 46.7599 300.625 46.7484H299.202L299.201 46.6843ZM311.301 56.067H314.472V38.5963H311.301V56.067ZM321.979 56.067H325.149V41.3142H329.809L330.715 38.5963H316.938V41.3142H322.049V56.067H321.979ZM337.897 56.067H341.133V49.2096L347.082 38.662H343.652L339.581 46.3617H339.517L335.446 38.662H331.952L337.901 49.2096V56.067H337.897Z" fill="#BCBEC0"/>
<path d="M206.214 33.4188H209.384V21.3182H209.448C209.773 21.9648 210.289 22.6129 210.613 23.1296L214.432 28.6296H215.855L219.285 23.2595C219.721 22.6418 220.11 21.993 220.45 21.3182H220.514C220.45 22.0305 220.45 22.9354 220.45 23.6478V33.483H223.686V16.0138H220.774L216.567 22.4845C215.985 23.391 215.532 24.1676 215.144 24.8142H215.08C214.63 24.0294 214.133 23.2728 213.591 22.5487L208.998 15.9481H206.084V33.4188H206.214ZM226.014 33.4188H229.315L230.932 29.0194H237.144L238.827 33.4188H242.25L235.261 15.8839H232.737L226.014 33.4188ZM231.903 26.4299L233.197 22.9996L234.104 20.2817H234.168C234.298 20.8641 234.556 21.6407 235.009 22.9996L236.238 26.4941H231.903V26.4299ZM244.65 33.4188H254.033V30.7009H247.82V15.9481H244.65V33.4188ZM258.114 33.4188H261.285V18.666H265.944L266.85 15.9481H253.073V18.666H258.185V33.4188H258.114ZM265.232 33.4188H268.532L270.149 29.0194H276.362L278.045 33.4188H281.475L274.486 15.8839H271.962L265.232 33.4188ZM271.12 26.4299L272.415 22.9996L273.321 20.2817H273.385C273.626 21.2071 273.929 22.1151 274.292 22.9996L275.521 26.4941H271.121L271.12 26.4299ZM304.311 24.941H301.075V30.5052C300.149 30.8739 299.159 31.0503 298.163 31.0234C294.405 31.0234 292.213 28.5638 292.213 24.811C292.147 23.9586 292.268 23.1019 292.568 22.3012C292.868 21.5006 293.341 20.7756 293.951 20.1771C294.562 19.5787 295.297 19.1215 296.103 18.8377C296.91 18.5539 297.769 18.4504 298.62 18.5345C300.288 18.5204 301.933 18.9207 303.408 19.6993V16.7246C301.784 16.1658 300.078 15.8817 298.36 15.8839C292.536 15.8839 288.783 19.7666 288.783 25.0725C288.783 30.0543 292.148 33.7429 297.908 33.7429C300.104 33.7755 302.277 33.2878 304.248 32.3198V24.9425L304.311 24.941ZM306.382 33.4173H309.683L311.3 29.0179H317.512L319.195 33.4173H322.624L315.701 15.8823H313.113L306.382 33.4173ZM312.271 26.4283L313.565 22.9981L314.472 20.2801H314.536C314.777 21.2055 315.079 22.1136 315.443 22.9981L316.672 26.4925H312.271V26.4283ZM325.018 33.4173H328.188V21.3166H328.252C328.577 21.9632 329.093 22.6113 329.417 23.128L333.234 28.628H334.723L338.153 23.258C338.589 22.6403 338.978 21.9914 339.318 21.3166H339.382C339.318 22.0289 339.318 22.9339 339.318 23.6462V33.4815H342.554V16.0138H339.642L335.436 22.4845C334.853 23.391 334.401 24.1676 334.012 24.8142H333.948C333.56 24.1018 333.107 23.4552 332.525 22.5487L327.93 15.9481H325.018V33.4173ZM346.89 33.4173H350.06V15.9481H346.89V33.4173ZM369.926 33.4173V15.9481H366.69V25.2666C366.69 26.2373 366.69 27.2722 366.754 28.1787H366.69C366.172 27.338 365.525 26.4957 364.749 25.4608L357.437 15.8839H354.267V33.3546H357.437V23.4537C357.437 22.4188 357.437 21.4481 357.373 20.7357H357.437C358.02 21.5185 358.602 22.4188 359.379 23.3895L366.95 33.3546H369.925L369.926 33.4173ZM388.822 24.941H385.585V30.5052C384.66 30.8739 383.669 31.0502 382.673 31.0234C378.916 31.0234 376.724 28.5638 376.724 24.811C376.657 23.9586 376.779 23.1019 377.079 22.3012C377.379 21.5006 377.851 20.7756 378.462 20.1771C379.073 19.5787 379.807 19.1215 380.614 18.8377C381.421 18.5539 382.28 18.4504 383.131 18.5345C384.799 18.5202 386.445 18.9204 387.92 19.6993V16.7246C386.296 16.1659 384.59 15.8817 382.872 15.8839C377.048 15.8839 373.295 19.7666 373.295 25.0725C373.295 30.0543 376.66 33.7429 382.42 33.7429C384.616 33.7755 386.789 33.2878 388.761 32.3198V24.9425L388.822 24.941Z" fill="#BCBEC0"/>
<path d="M46.7068 56.2613H59.2599V29.2856C61.4597 27.669 64.1022 26.7657 66.8313 26.6977C71.4906 26.6977 72.0072 29.998 72.0072 33.8807V56.2691H84.5604V29.2856C86.7359 27.6704 89.3572 26.7665 92.0659 26.6977C96.7252 26.6977 97.3076 29.868 97.3076 33.6866V56.2613H109.927V30.4426C109.927 19.4426 103.194 15.8823 95.9502 15.8823C90.8447 16.1488 85.9729 18.1064 82.1023 21.4466C80.9823 19.6345 79.3919 18.1601 77.5003 17.1802C75.6087 16.2004 73.4869 15.7519 71.3606 15.8823C66.6483 16.1341 62.1383 17.8789 58.4834 20.8642L57.3186 16.8515H46.771V56.2581L46.7068 56.2613ZM132.381 75.9975C147.393 75.9975 154.447 69.5909 154.447 62.5331C154.447 47.7803 128.564 54.1853 128.564 47.5204C128.554 46.9222 128.664 46.3281 128.888 45.7732C130.349 46.1317 131.849 46.3058 133.353 46.2914C143.448 46.2914 150.501 40.533 150.501 31.4728C150.551 28.3249 149.549 25.2505 147.653 22.7366C148.409 22.5108 149.194 22.4015 149.983 22.4125C151.092 22.4497 152.196 22.5796 153.283 22.8008L155.613 14.1304C154.966 14.0662 153.607 13.9363 152.765 13.9363C147.071 13.9363 144.547 15.3594 142.275 17.4307C141.951 17.7548 141.693 17.949 141.305 17.6891C138.758 16.4126 135.934 15.7901 133.087 15.8777C120.922 15.8777 116.004 23.7715 116.004 30.6962C115.903 33.2038 116.496 35.6905 117.718 37.8827C118.939 40.075 120.742 41.8876 122.927 43.121C119.757 44.8682 117.686 47.5862 117.686 50.3683C117.651 51.3336 117.872 52.2909 118.327 53.1432C118.781 53.9955 119.453 54.7126 120.274 55.2217C118.312 55.8178 116.584 57.0106 115.332 58.6341C114.079 60.2577 113.364 62.2313 113.285 64.2804C113.285 70.8152 119.95 75.9928 132.374 75.9928M134.186 67.5165C127.909 67.5165 124.351 65.2511 124.351 62.0165C124.357 61.318 124.51 60.6286 124.799 59.9931C125.089 59.3575 125.51 58.7902 126.034 58.3279C130.046 60.3992 142.599 59.2344 142.599 63.8921C142.599 66.3517 138.587 67.5149 134.187 67.5149M133.286 37.1137C132.514 37.1189 131.75 36.9632 131.043 36.6565C130.335 36.3498 129.699 35.8989 129.175 35.3325C128.652 34.7662 128.252 34.0969 128.002 33.3673C127.751 32.6378 127.656 31.864 127.721 31.0955C127.721 26.9544 130.115 25.013 133.157 25.013C133.945 25.0172 134.724 25.1819 135.447 25.4969C136.169 25.8119 136.82 26.2707 137.359 26.8454C137.899 27.42 138.315 28.0985 138.584 28.8394C138.853 29.5803 138.968 30.3682 138.922 31.155C138.858 35.1019 136.462 37.1043 133.286 37.1043M182.789 56.2613H193.142C192.593 53.7115 192.375 51.1013 192.496 48.4958V30.8309C192.496 21.254 187.514 15.8181 175.348 15.8181C169.708 15.7863 164.141 17.0951 159.106 19.6367L162.989 27.5306C166.086 25.9879 169.494 25.1694 172.954 25.1367C177.225 25.1367 179.877 26.6256 179.877 30.3127V30.701L173.6 30.9593C169.999 31.0056 166.448 31.823 163.189 33.3562C161.144 34.2852 159.423 35.8041 158.246 37.718C157.07 39.6319 156.493 41.8536 156.588 44.098C156.588 51.6693 162.282 56.9752 169.982 56.9752C174.043 57.0481 177.978 55.5667 180.982 52.8341L182.789 56.2613ZM179.877 38.7263V46.0378C178.12 47.0194 176.131 47.511 174.119 47.4609C171.144 47.4609 169.201 46.102 169.201 43.3903C169.146 42.7128 169.28 42.0334 169.589 41.4278C169.897 40.8221 170.368 40.314 170.948 39.96C172.399 39.248 173.992 38.8733 175.607 38.8641L179.877 38.7263Z" fill="#808285"/>
</g>
</g>
</g>
<defs>
<clipPath id="clip0_1_208">
<rect width="388.23" height="76" fill="white" transform="translate(0.590088)"/>
</clipPath>
<clipPath id="clip1_1_208">
<rect width="388.23" height="76" fill="white" transform="translate(0.590088)"/>
</clipPath>
<clipPath id="clip2_1_208">
<rect width="388.23" height="75.9983" fill="white" transform="translate(0.590088 0.000732422)"/>
</clipPath>
</defs>
</svg>
