<svg width="70" height="70" viewBox="0 0 70 70" fill="none" xmlns="http://www.w3.org/2000/svg">
<g clip-path="url(#clip0_1_73)">
<g clip-path="url(#clip1_1_73)">
<g clip-path="url(#clip2_1_73)">
<path d="M52.5044 14.0003V8.75074C52.5044 7.35838 51.9514 6.02303 50.9669 5.03841C49.9824 4.05379 48.6472 3.50052 47.2548 3.50029H8.75074C8.06121 3.50018 7.37841 3.63591 6.74135 3.89974C6.10429 4.16356 5.52544 4.5503 5.03787 5.03787C4.5503 5.52544 4.16356 6.10429 3.89974 6.74135C3.63591 7.37841 3.50018 8.06121 3.50029 8.75074V14.0012L52.5044 14.0003ZM40.2492 17.5015H3.50029V50.7501C3.50029 52.1426 4.05346 53.478 5.03811 54.4627C6.02276 55.4473 7.35823 56.0005 8.75074 56.0005H38.4999V22.7502C38.4968 20.8565 39.1109 19.0133 40.2492 17.4998V17.5015ZM47.2498 17.5015C45.8574 17.5017 44.5222 18.055 43.5377 19.0396C42.5532 20.0242 42.0002 21.3596 42.0002 22.7519V61.2501C42.0004 62.6423 42.5535 63.9774 43.538 64.9619C44.5224 65.9463 45.8576 66.4995 47.2498 66.4997H61.2501C62.6423 66.4995 63.9774 65.9463 64.9619 64.9619C65.9463 63.9774 66.4995 62.6423 66.4997 61.2501V22.7502C66.4997 21.3579 65.9466 20.0225 64.9622 19.0379C63.9777 18.0533 62.6425 17.5 61.2501 17.4998L47.2498 17.5015ZM56.0005 14.0012H61.2509C63.5718 14.0012 65.7976 14.9231 67.4386 16.5642C69.0797 18.2053 70.0017 20.4311 70.0017 22.7519V61.2501C70.0017 62.3993 69.7753 63.5372 69.3356 64.5989C68.8958 65.6606 68.2512 66.6252 67.4386 67.4378C66.6261 68.2504 65.6614 68.895 64.5997 69.3347C63.538 69.7745 62.4001 70.0008 61.2509 70.0008H47.2506C46.1014 70.0008 44.9635 69.7745 43.9018 69.3347C42.8402 68.895 41.8755 68.2504 41.0629 67.4378C40.2503 66.6252 39.6057 65.6606 39.166 64.5989C38.7262 63.5372 38.4999 62.3993 38.4999 61.2501V59.5H8.75074C6.43004 59.5 4.20439 58.5781 2.56333 56.9372C0.922272 55.2963 0.000223144 53.0708 0 50.7501V8.75074C0 6.4299 0.92195 4.20411 2.56303 2.56303C4.20411 0.92195 6.4299 0 8.75074 0H47.2506C49.5714 0 51.7972 0.92195 53.4383 2.56303C55.0794 4.20411 56.0013 6.4299 56.0013 8.75074L56.0005 14.0012ZM6.99975 6.99975H10.5V10.5H6.99975V6.99975ZM13.9995 6.99975H17.5015V10.5H14.0012L13.9995 6.99975ZM20.9992 6.99975H24.4995V10.5H20.9992V6.99975ZM50.7501 63.0002C50.2859 63.0002 49.8407 62.8159 49.5125 62.4876C49.1843 62.1594 48.9999 61.7143 48.9999 61.2501C48.9999 60.7859 49.1843 60.3408 49.5125 60.0126C49.8407 59.6843 50.2859 59.5 50.7501 59.5H57.7498C58.214 59.5 58.6591 59.6843 58.9873 60.0126C59.3156 60.3408 59.5 60.7859 59.5 61.2501C59.5 61.7143 59.3156 62.1594 58.9873 62.4876C58.6591 62.8159 58.214 63.0002 57.7498 63.0002H50.7501Z" fill="#FEAE03"/>
</g>
</g>
</g>
<defs>
<clipPath id="clip0_1_73">
<rect width="70" height="70" fill="white"/>
</clipPath>
<clipPath id="clip1_1_73">
<rect width="70" height="70" fill="white"/>
</clipPath>
<clipPath id="clip2_1_73">
<rect width="70" height="70" fill="white"/>
</clipPath>
</defs>
</svg>
