<svg width="70" height="54" viewBox="0 0 70 54" fill="none" xmlns="http://www.w3.org/2000/svg">
<g clip-path="url(#clip0_1_3772)">
<path d="M66.3725 0.824707H18.1344C17.8586 0.824707 17.5942 0.934239 17.3992 1.12921C17.2043 1.32417 17.0947 1.5886 17.0947 1.86433C17.0947 2.14005 17.2043 2.40448 17.3992 2.59945C17.5942 2.79442 17.8586 2.90395 18.1344 2.90395H66.3725C66.783 2.90441 67.1765 3.06768 67.4668 3.35792C67.757 3.64817 67.9203 4.04169 67.9208 4.45216V49.5473C67.9203 49.9578 67.757 50.3513 67.4668 50.6415C67.1765 50.9318 66.783 51.0951 66.3725 51.0955H3.62745C3.21698 51.0951 2.82346 50.9318 2.53321 50.6415C2.24297 50.3513 2.07971 49.9578 2.07924 49.5473V4.45216C2.07971 4.04169 2.24297 3.64817 2.53321 3.35792C2.82346 3.06768 3.21698 2.90441 3.62745 2.90395H7.92001C8.19573 2.90395 8.46016 2.79442 8.65513 2.59945C8.8501 2.40448 8.95963 2.14005 8.95963 1.86433C8.95963 1.5886 8.8501 1.32417 8.65513 1.12921C8.46016 0.934239 8.19573 0.824707 7.92001 0.824707H3.62745C2.66572 0.825787 1.74369 1.20831 1.06365 1.88836C0.383604 2.5684 0.00107999 3.49043 0 4.45216L0 49.5473C0.00107999 50.509 0.383604 51.4311 1.06365 52.1111C1.74369 52.7912 2.66572 53.1737 3.62745 53.1748H66.3725C67.3343 53.1737 68.2563 52.7912 68.9363 52.1111C69.6164 51.4311 69.9989 50.509 70 49.5473V4.45216C69.9988 3.49048 69.6162 2.56854 68.9362 1.88853C68.2562 1.20851 67.3342 0.825941 66.3725 0.824707Z" fill="#FDAC03"/>
<path fill-rule="evenodd" clip-rule="evenodd" d="M6.00879 9.33054C6.00822 9.00275 6.10486 8.68215 6.2865 8.40929C6.46815 8.13643 6.72663 7.92357 7.02926 7.79762C7.33189 7.67167 7.66507 7.6383 7.98667 7.70173C8.30826 7.76516 8.60383 7.92253 8.83598 8.15394C9.06813 8.38536 9.22643 8.68042 9.29088 9.00182C9.35532 9.32321 9.32301 9.6565 9.19802 9.95952C9.07303 10.2626 8.86099 10.5217 8.5887 10.7042C8.31642 10.8867 7.99613 10.9844 7.66834 10.9848C7.2292 10.9845 6.80806 10.8103 6.49705 10.5003C6.18604 10.1903 6.01049 9.76967 6.00879 9.33054ZM10.6995 9.33054C10.6989 9.00253 10.7957 8.68172 10.9776 8.40874C11.1594 8.13577 11.4182 7.92291 11.7212 7.79712C12.0241 7.67133 12.3575 7.63826 12.6793 7.70211C13.001 7.76596 13.2966 7.92386 13.5285 8.1558C13.7605 8.38774 13.9184 8.68329 13.9822 9.00503C14.0461 9.32677 14.013 9.66023 13.8872 9.96316C13.7614 10.2661 13.5485 10.5249 13.2756 10.7068C13.0026 10.8886 12.6818 10.9854 12.3538 10.9848C11.9154 10.9838 11.4952 10.8091 11.1852 10.4991C10.8752 10.1891 10.7006 9.76896 10.6995 9.33054ZM15.3884 9.33054C15.3881 9.00281 15.485 8.68234 15.6669 8.40971C15.8487 8.13708 16.1074 7.92455 16.4102 7.79903C16.7129 7.6735 17.0461 7.64063 17.3675 7.70456C17.689 7.7685 17.9842 7.92638 18.2159 8.1582C18.4475 8.39003 18.6052 8.68538 18.6689 9.00686C18.7326 9.32834 18.6995 9.6615 18.5738 9.96415C18.448 10.2668 18.2353 10.5253 17.9626 10.707C17.6898 10.8887 17.3693 10.9854 17.0415 10.9848C16.6033 10.9833 16.1835 10.8085 15.8737 10.4986C15.5639 10.1886 15.3898 9.76876 15.3884 9.33054Z" fill="#FDAC03"/>
<path fill-rule="evenodd" clip-rule="evenodd" d="M53.6458 25.2201L53.3695 24.0403C53.0624 23.9488 52.7651 23.8273 52.4817 23.6777L51.3305 24.39C51.2037 24.495 51.0442 24.5524 50.8796 24.5524C50.715 24.5524 50.5555 24.495 50.4287 24.39L49.9041 23.8596C49.6552 23.6142 49.7292 23.2807 49.9041 22.9631L50.6147 21.8066C50.4186 21.4425 50.2729 21.0534 50.1816 20.6501L49.074 20.3866C48.7295 20.3091 48.4375 20.1015 48.4375 19.7518V19.0086C48.4375 18.6588 48.729 18.4746 49.074 18.3674L50.3442 18.0759L50.705 17.3181C50.4975 16.9841 50.29 16.6455 50.0883 16.3115C49.9808 16.1865 49.9216 16.0272 49.9216 15.8623C49.9216 15.6975 49.9808 15.5381 50.0883 15.4132L50.6129 14.8886C50.8583 14.6397 51.1958 14.7172 51.5112 14.8886L52.5902 15.5578L53.3229 15.2576C53.422 14.8588 53.5304 14.4584 53.6458 14.0632C53.7484 13.7187 53.9291 13.4266 54.287 13.4266H55.0302C55.38 13.4266 55.5857 13.7181 55.6668 14.0632L55.964 15.2576L56.8425 15.6201C57.1602 15.4324 57.4738 15.2541 57.7932 15.0769C58.1127 14.8997 58.4443 14.828 58.6897 15.0769L59.2202 15.6015C59.3256 15.7274 59.3834 15.8864 59.3834 16.0506C59.3834 16.2148 59.3256 16.3738 59.2202 16.4997L58.6629 17.4324L58.9445 18.0276C59.4044 18.1441 59.8427 18.2607 60.2327 18.3721C60.5789 18.4729 60.8739 18.6571 60.8739 19.0133V19.7565C60.8739 20.1062 60.5824 20.3102 60.2327 20.3913L59.1176 20.6745L58.7673 21.6696C58.9853 22.0356 59.1969 22.4075 59.4038 22.7806C59.5787 23.0948 59.6545 23.4282 59.4038 23.6789L58.8792 24.2035C58.7538 24.3093 58.595 24.3674 58.4309 24.3674C58.2668 24.3674 58.108 24.3093 57.9827 24.2035L56.9655 23.6008C56.6442 23.7884 56.3012 23.9362 55.9442 24.0409L55.6662 25.2207C55.5852 25.5652 55.3829 25.8572 55.0296 25.8572H54.2841C53.9326 25.8566 53.749 25.5646 53.6458 25.2201ZM56.9311 19.6422C56.9311 19.1927 56.7978 18.7533 56.5482 18.3796C56.2986 18.0058 55.9437 17.7144 55.5285 17.5422C55.1133 17.3701 54.6564 17.3249 54.2155 17.4123C53.7746 17.4997 53.3695 17.7159 53.0515 18.0335C52.7334 18.3511 52.5166 18.7558 52.4285 19.1966C52.3404 19.6373 52.3849 20.0943 52.5564 20.5098C52.728 20.9252 53.0188 21.2805 53.3922 21.5307C53.7656 21.781 54.2048 21.9149 54.6542 21.9156C55.2572 21.9148 55.8353 21.6751 56.2619 21.249C56.6886 20.823 56.9296 20.2452 56.9311 19.6422Z" fill="#FDAC03"/>
<path fill-rule="evenodd" clip-rule="evenodd" d="M49.0141 43.2111C49.0147 42.9563 49.1162 42.7121 49.2965 42.5321C49.4768 42.352 49.7211 42.2507 49.9759 42.2504H59.2103C59.4649 42.2504 59.709 42.3515 59.889 42.5315C60.069 42.7115 60.1701 42.9556 60.1701 43.2102C60.1701 43.4647 60.069 43.7088 59.889 43.8888C59.709 44.0688 59.4649 44.1699 59.2103 44.1699H49.9759C49.7213 44.1698 49.4772 44.0688 49.297 43.8891C49.1167 43.7094 49.015 43.4656 49.0141 43.2111ZM48.9727 39.7328C48.9736 39.4786 49.075 39.2351 49.2547 39.0554C49.4344 38.8757 49.678 38.7743 49.9321 38.7734H63.0313C63.2864 38.7734 63.531 38.8747 63.7114 39.0551C63.8918 39.2354 63.9931 39.4801 63.9931 39.7352C63.9931 39.9902 63.8918 40.2349 63.7114 40.4153C63.531 40.5956 63.2864 40.697 63.0313 40.697H49.9321C49.8057 40.697 49.6806 40.672 49.5639 40.6235C49.4472 40.575 49.3412 40.5039 49.252 40.4143C49.1629 40.3247 49.0923 40.2184 49.0444 40.1014C48.9964 39.9845 48.9721 39.8592 48.9727 39.7328ZM49.0141 35.4391C49.0148 35.1843 49.1164 34.9401 49.2966 34.7599C49.4768 34.5797 49.721 34.4781 49.9759 34.4773H59.2103C59.4649 34.4773 59.709 34.5784 59.889 34.7584C60.069 34.9384 60.1701 35.1825 60.1701 35.4371C60.1701 35.6916 60.069 35.9357 59.889 36.1157C59.709 36.2957 59.4649 36.3968 59.2103 36.3968H49.9759C49.7214 36.3971 49.4772 36.2965 49.2969 36.1169C49.1165 35.9374 49.0148 35.6936 49.0141 35.4391ZM48.9727 31.9591C48.9733 31.7049 49.0746 31.4613 49.2544 31.2816C49.4342 31.1019 49.6779 31.0007 49.9321 31.0002H63.0313C63.1572 31.0002 63.2819 31.025 63.3983 31.0732C63.5146 31.1214 63.6203 31.1921 63.7093 31.2811C63.7984 31.3701 63.869 31.4758 63.9172 31.5922C63.9654 31.7085 63.9902 31.8332 63.9902 31.9591C63.9902 32.0851 63.9654 32.2097 63.9172 32.3261C63.869 32.4424 63.7984 32.5481 63.7093 32.6372C63.6203 32.7262 63.5146 32.7968 63.3983 32.845C63.2819 32.8932 63.1572 32.918 63.0313 32.918H49.9321C49.6778 32.918 49.4338 32.817 49.2539 32.6372C49.074 32.4574 48.9728 32.2135 48.9727 31.9591Z" fill="#FDAC03"/>
<path fill-rule="evenodd" clip-rule="evenodd" d="M6.99219 43.2116C6.99342 42.9577 7.09495 42.7145 7.27467 42.5352C7.45439 42.3558 7.69773 42.2547 7.95166 42.2539H38.5591C38.8137 42.2539 39.0578 42.355 39.2378 42.535C39.4178 42.715 39.5189 42.9591 39.5189 43.2137C39.5189 43.4682 39.4178 43.7123 39.2378 43.8923C39.0578 44.0723 38.8137 44.1734 38.5591 44.1734H7.95166C7.69698 44.1728 7.45294 44.0712 7.27307 43.8909C7.0932 43.7106 6.99219 43.4663 6.99219 43.2116Z" fill="#FDAC03"/>
<path fill-rule="evenodd" clip-rule="evenodd" d="M16.2658 39.0911C17.0339 39.0911 17.7849 39.3189 18.4236 39.7456C19.0623 40.1724 19.5601 40.779 19.8541 41.4887C20.148 42.1984 20.2249 42.9793 20.0751 43.7327C19.9252 44.4861 19.5553 45.1782 19.0121 45.7214C18.4689 46.2645 17.7769 46.6344 17.0235 46.7843C16.2701 46.9342 15.4891 46.8573 14.7795 46.5633C14.0698 46.2693 13.4632 45.7715 13.0364 45.1328C12.6096 44.4941 12.3818 43.7432 12.3818 42.975C12.3837 41.9455 12.7935 40.9587 13.5215 40.2307C14.2494 39.5027 15.2363 39.0929 16.2658 39.0911Z" fill="#FDAC03"/>
<path fill-rule="evenodd" clip-rule="evenodd" d="M6.9082 33.1629V16.4287H39.5955V33.1629H6.9082ZM37.6742 31.2434V18.3482H8.82598V31.2434H37.6742Z" fill="#FDAC03"/>
<path fill-rule="evenodd" clip-rule="evenodd" d="M12.376 29.3955V25.8538H15.9265V29.3955H12.376ZM18.4447 29.3955V25.8538H21.9876V29.3955H18.4447ZM24.5151 29.3955V25.8538H28.0563V29.3955H24.5151ZM30.5774 29.3955V25.8538H34.1296V29.3955H30.5774ZM12.376 23.7372V20.1908H15.9265V23.7372H12.376ZM18.4447 23.7372V20.1908H21.9876V23.7372H18.4447ZM24.5151 23.7372V20.1908H28.0563V23.7372H24.5151ZM30.5774 23.7372V20.1908H34.1296V23.7372H30.5774Z" fill="#FDAC03"/>
</g>
<defs>
<clipPath id="clip0_1_3772">
<rect width="70" height="52.3506" fill="white" transform="translate(0 0.824707)"/>
</clipPath>
</defs>
</svg>
