<svg width="70" height="70" viewBox="0 0 70 70" fill="none" xmlns="http://www.w3.org/2000/svg">
<g clip-path="url(#clip0_1_28)">
<g clip-path="url(#clip1_1_28)">
<g clip-path="url(#clip2_1_28)">
<path d="M39.8442 7.69206C37.9431 7.76365 36.4079 9.29092 36.3442 11.1921V18.2C36.2965 19.1386 36.6624 20.0534 37.3465 20.7057C38.0067 21.3739 38.9136 21.7318 39.8522 21.708H51.6965C52.6351 21.7318 53.542 21.3739 54.2022 20.7057C54.8465 20.0296 55.2045 19.1386 55.2045 18.2V11.1921C55.2522 10.2534 54.8863 9.33865 54.2022 8.68638C53.542 8.0182 52.6351 7.66024 51.6965 7.6841H39.8522L39.8442 7.69206ZM52.9374 11.2796V18.2875C52.9533 18.9159 52.4522 19.4409 51.8238 19.4568C51.8079 19.4568 51.784 19.4568 51.7681 19.4568H39.9238C39.2954 19.4727 38.7704 18.9716 38.7545 18.3432C38.7545 18.3273 38.7545 18.3034 38.7545 18.2875L38.667 11.2C38.6511 10.8898 38.7704 10.5796 39.0011 10.3648C39.2158 10.0864 39.5897 9.98297 39.9158 10.1182H51.7601C52.3886 10.1023 52.9136 10.6034 52.9295 11.2318C52.9295 11.2477 52.9295 11.2716 52.9295 11.2875L52.9374 11.2796Z" fill="#FEAE03"/>
<path d="M42.3421 13.5308C41.6977 13.5308 41.1727 14.0478 41.1648 14.6921C41.1648 15.3364 41.6818 15.8614 42.3262 15.8694H42.3421H49.35C49.6603 15.8853 49.9705 15.766 50.1852 15.5353C50.3921 15.3046 50.5114 15.0103 50.5193 14.7001C50.5352 14.0717 50.0341 13.5467 49.4057 13.5308C49.3898 13.5308 49.3659 13.5308 49.35 13.5308H42.3421Z" fill="#FEAE03"/>
<path d="M51.6807 2.85571H29.1614C27.0852 2.85571 25.0886 3.65912 23.5693 5.07503C17.5875 2.93526 11.0011 6.05344 8.86138 12.0353C8.05001 14.2943 7.97047 16.7523 8.6307 19.0591C8.49547 19.1864 8.36024 19.3137 8.22501 19.4409C2.6966 24.9614 2.68865 33.9182 8.2091 39.4466C11.7807 43.0262 16.9989 44.4262 21.883 43.1137L29.9011 51.1318C30.1159 51.3625 30.4182 51.4818 30.7364 51.4659H32.908V53.6296C32.8921 54.258 33.3932 54.783 34.0216 54.7989C34.0375 54.7989 34.0614 54.7989 34.0773 54.7989H36.2489V56.9705C36.233 57.5989 36.7341 58.1239 37.3625 58.1398C37.3784 58.1398 37.4023 58.1398 37.4182 58.1398H39.5898V60.3114C39.5739 60.9398 40.075 61.4648 40.7034 61.4807C40.7193 61.4807 40.7432 61.4807 40.7591 61.4807H42.9307V63.6523C42.9148 64.2807 43.4159 64.8057 44.0443 64.8216C44.0602 64.8216 44.0841 64.8216 44.1 64.8216H46.2716V66.9932C46.2557 67.6216 46.7568 68.1466 47.3852 68.1625C47.4011 68.1625 47.425 68.1625 47.4409 68.1625H50.7739C51.0841 68.1784 51.3943 68.0591 51.6091 67.8284L54.9421 64.4955L54.9898 64.4478C55.3636 64.058 55.4352 63.4693 55.1727 63L53.6057 55.1568C53.55 54.9103 53.4307 54.6796 53.2716 54.4887L31.9057 33.1228C32.4705 30.975 32.5261 28.7159 32.0727 26.5443L51.7682 26.4728C53.9318 26.4568 56 25.5898 57.5193 24.0546C59.1261 22.5114 60.0091 20.3637 59.9375 18.1364V11.1284C59.9136 6.56253 56.2466 2.87162 51.6807 2.87162V2.85571ZM31.5796 9.44208C32.5023 10.3648 32.5023 11.8523 31.5796 12.775C30.6568 13.6978 29.1693 13.6978 28.2466 12.775C27.6421 12.1705 27.4114 11.2796 27.6421 10.4603C28.2148 10.7864 28.9386 10.5875 29.2648 10.0228C29.4716 9.65685 29.4716 9.20344 29.2648 8.83753C30.0841 8.60685 30.9671 8.83753 31.5796 9.43412V9.44208ZM13.2364 9.44208C15.4716 7.06367 18.8602 6.14094 22.0023 7.05571C21.2864 8.28867 20.9125 9.68867 20.9125 11.1046V15.5671C17.3807 14.8909 13.7296 15.583 10.6909 17.4841C10.0864 14.5409 11.0489 11.4864 13.2443 9.43412L13.2364 9.44208ZM12.6398 25.4784C13.2125 25.8046 13.9364 25.6057 14.2625 25.0409C14.4693 24.675 14.4693 24.2216 14.2625 23.8557C15.5114 23.4978 16.8239 24.2216 17.1739 25.4784C17.5239 26.7353 16.808 28.0398 15.5511 28.3898C14.3023 28.7478 12.9898 28.0239 12.6398 26.7671C12.5205 26.3455 12.5205 25.9 12.6398 25.4784ZM48.5943 65.8239V63.6523C48.6102 63.0239 48.1091 62.4989 47.4807 62.483C47.4648 62.483 47.4409 62.483 47.425 62.483H45.2534V60.3114C45.2693 59.683 44.7682 59.158 44.1398 59.1421C44.1239 59.1421 44.1 59.1421 44.0841 59.1421H41.9125V56.9705C41.9284 56.3421 41.4273 55.8171 40.7989 55.8012C40.783 55.8012 40.7591 55.8012 40.7432 55.8012H38.5716V53.6296C38.5875 53.0012 38.0864 52.4762 37.458 52.4603C37.4421 52.4603 37.4182 52.4603 37.4023 52.4603H35.2307V50.2887C35.2466 49.6603 34.7455 49.1353 34.1171 49.1193C34.1011 49.1193 34.0773 49.1193 34.0614 49.1193H31.2216L24.3091 42.2068C24.4761 42.1273 24.6432 42.0478 24.8102 41.9603C26.075 41.3159 27.2284 40.4648 28.2227 39.4466L52.4125 63.6364L50.2489 65.8H48.5784L48.5943 65.8239ZM51.3466 55.8966L52.1421 59.858L29.8455 37.5614C30.2909 36.925 30.6807 36.2568 31.0068 35.5568L51.3466 55.8966ZM29.5193 32.8682C29.4716 32.9478 29.4318 33.0353 29.4159 33.1307C29.3364 33.3932 29.2489 33.6557 29.1534 33.9182C28.5648 35.3739 27.6898 36.6943 26.5761 37.8C26.3216 38.0546 26.0591 38.2932 25.7886 38.5159C24.6432 39.4625 23.3227 40.1864 21.9068 40.6318C21.7955 40.6557 21.6841 40.6955 21.5807 40.7591C15.3364 42.6125 8.78183 39.0489 6.92842 32.8125C5.7432 28.8193 6.75342 24.5 9.58524 21.4455C9.96706 22.1932 10.4205 22.9091 10.9216 23.5853C9.5216 25.7807 10.1659 28.7 12.3614 30.1C14.5568 31.5 17.4761 30.8557 18.8761 28.6603C20.2761 26.4648 19.6318 23.5455 17.4364 22.1455C15.9966 21.2228 14.1671 21.1591 12.6637 21.9625C12.1784 21.2943 11.7648 20.5784 11.4227 19.8228C16.1 16.5375 22.4636 17.0625 26.5364 21.0796L26.7034 21.2466L26.7511 21.2943C27.9205 22.5591 28.7955 24.0546 29.3284 25.6932C29.3682 25.8205 29.4398 25.9398 29.5193 26.0432C30.1796 28.2625 30.1796 30.633 29.5193 32.8523V32.8682ZM57.5989 11.2796V18.2875C57.5273 21.525 54.9182 24.1341 51.6807 24.2057H31.3727C31.0625 23.4103 30.6727 22.6546 30.2273 21.9307C30.2193 21.9148 30.2114 21.8989 30.1955 21.883C30.1477 21.8034 30.0921 21.7239 30.0443 21.6443C30.0125 21.5887 29.9727 21.5409 29.933 21.4853C29.8932 21.4296 29.8693 21.3898 29.8375 21.3421C29.8136 21.3103 29.7898 21.2784 29.7739 21.2466C29.3205 20.6023 28.8034 19.9978 28.2466 19.4409L28.2068 19.4012L28.1591 19.3534C26.7989 17.9534 25.1523 16.8716 23.3227 16.1875V11.1841C23.3546 10.0466 23.7046 8.93298 24.333 7.97844C24.8261 8.24094 25.3034 8.53526 25.7568 8.86139C24.5239 11.1523 25.383 14.0159 27.6818 15.2489C29.9727 16.4818 32.8364 15.6228 34.0693 13.3239C35.3023 11.033 34.4432 8.16935 32.1443 6.93639C30.6409 6.12503 28.8114 6.19662 27.3716 7.11935C26.95 6.80117 26.5046 6.50685 26.0511 6.23639C26.9898 5.60003 28.1034 5.25799 29.2409 5.25799L51.7602 5.42503C53.3273 5.36935 54.8386 5.97389 55.9284 7.09549C57.0023 8.21708 57.5989 9.71253 57.5909 11.2637L57.5989 11.2796Z" fill="#FEAE03"/>
</g>
</g>
</g>
<defs>
<clipPath id="clip0_1_28">
<rect width="70" height="70" fill="white"/>
</clipPath>
<clipPath id="clip1_1_28">
<rect width="70" height="70" fill="white"/>
</clipPath>
<clipPath id="clip2_1_28">
<rect width="70" height="70" fill="white"/>
</clipPath>
</defs>
</svg>
