<svg width="70" height="70" viewBox="0 0 70 70" fill="none" xmlns="http://www.w3.org/2000/svg">
<g clip-path="url(#clip0_1_49)">
<g clip-path="url(#clip1_1_49)">
<g clip-path="url(#clip2_1_49)">
<path d="M27.2125 61.8168C12.2684 60.9413 3.30229 56.8024 3.30229 53.7372V32.9845C8.94412 36.8591 21.0279 38.871 33.0313 38.871C45.0347 38.871 57.1185 36.8591 62.7604 32.9845V36.9481L65.7832 35.7457C65.8755 35.7059 65.9712 35.6957 66.0644 35.661V11.4553C66.0652 4.29691 49.4496 0.554321 33.033 0.554321C16.6164 0.554321 0 4.29691 0 11.4553V53.7372C0 60.8558 15.2879 64.8591 30.5191 65.2588L28.4251 63.2901C27.9652 62.8477 27.5583 62.3532 27.2125 61.8168ZM33.033 3.85661C51.1812 3.85661 62.7621 8.35534 62.7621 11.4544C62.7621 14.5535 51.1812 19.0522 33.033 19.0522C14.8848 19.0522 3.30229 14.5535 3.30229 11.4553C3.30229 8.35703 14.8848 3.85661 33.033 3.85661ZM3.30229 16.473C8.94412 20.3477 21.0279 22.3596 33.0313 22.3596C45.0347 22.3596 57.1202 20.3443 62.7621 16.473V27.9718C62.7621 31.07 51.1812 35.5696 33.033 35.5696C14.8848 35.5696 3.30229 31.0666 3.30229 27.9718V16.473ZM67.6876 42.2351L70 44.6L44.6173 69.4468L32.9534 58.4807L35.2159 56.0691L44.5707 64.8685L67.6876 42.2351Z" fill="#FEAE03"/>
</g>
</g>
</g>
<defs>
<clipPath id="clip0_1_49">
<rect width="70" height="70" fill="white"/>
</clipPath>
<clipPath id="clip1_1_49">
<rect width="70" height="70" fill="white"/>
</clipPath>
<clipPath id="clip2_1_49">
<rect width="70" height="68.8933" fill="white" transform="translate(0 0.553345)"/>
</clipPath>
</defs>
</svg>
