<svg width="70" height="70" viewBox="0 0 70 70" fill="none" xmlns="http://www.w3.org/2000/svg">
<g clip-path="url(#clip0_1_3850)">
<path d="M13.1039 14.6161C14.5437 14.6161 15.9511 14.1892 17.1483 13.3893C18.3454 12.5894 19.2784 11.4524 19.8294 10.1222C20.3804 8.79206 20.5246 7.32836 20.2437 5.91624C19.9628 4.50412 19.2695 3.20701 18.2514 2.18893C17.2333 1.17085 15.9362 0.47753 14.5241 0.196643C13.112 -0.0842449 11.6483 0.0599168 10.3181 0.610898C8.98789 1.16188 7.85097 2.09493 7.05107 3.29207C6.25116 4.4892 5.82422 5.89665 5.82422 7.33644C5.82648 9.26643 6.59418 11.1167 7.95889 12.4814C9.3236 13.8462 11.1739 14.6138 13.1039 14.6161ZM13.1039 2.96863C13.9678 2.96863 14.8122 3.2248 15.5305 3.70474C16.2488 4.18468 16.8086 4.86684 17.1392 5.66495C17.4698 6.46306 17.5563 7.34128 17.3878 8.18855C17.2192 9.03582 16.8032 9.81409 16.1924 10.4249C15.5815 11.0358 14.8033 11.4518 13.956 11.6203C13.1087 11.7888 12.2305 11.7023 11.4324 11.3718C10.6343 11.0412 9.95213 10.4813 9.47219 9.76306C8.99225 9.04478 8.73609 8.20031 8.73609 7.33644C8.73753 6.17847 9.19817 5.06833 10.017 4.24953C10.8358 3.43072 11.9459 2.97008 13.1039 2.96863Z" fill="#FDAC03"/>
<path d="M24.979 45.3658C25.4376 44.8436 25.7812 44.2306 25.9874 43.5669C26.1936 42.9031 26.2578 42.2034 26.1758 41.5132L24.2452 24.6007C24.0915 22.7158 23.2498 20.9533 21.8806 19.6489C20.5113 18.3445 18.7101 17.5894 16.82 17.5272H9.38858C5.61451 17.5272 2.42017 20.5698 1.96339 24.6007L0.0327813 41.5139C-0.0494188 42.2042 0.0146699 42.9039 0.220875 43.5677C0.427079 44.2315 0.770777 44.8445 1.22959 45.3666C1.60523 45.7983 2.06319 46.1507 2.57667 46.4032C3.09015 46.6557 3.64884 46.8033 4.22005 46.8373L5.82773 68.5954C5.85538 68.9619 6.0204 69.3044 6.28978 69.5545C6.55915 69.8045 6.91301 69.9436 7.28055 69.944H18.928C19.2958 69.9433 19.6498 69.8042 19.9196 69.5543C20.1894 69.3044 20.3552 68.962 20.384 68.5954L21.9916 46.8373C22.5624 46.8031 23.1207 46.6554 23.6336 46.4027C24.1466 46.15 24.604 45.7975 24.979 45.3658ZM22.8001 43.4267C22.6678 43.5808 22.5044 43.7052 22.3207 43.792C22.1371 43.8787 21.9372 43.9258 21.7341 43.9301H20.6345C20.2669 43.9303 19.913 44.0693 19.6436 44.3194C19.3741 44.5695 19.2092 44.9121 19.1817 45.2787L17.574 67.0305H8.63765L7.02453 45.2787C6.99688 44.9122 6.83186 44.5696 6.56248 44.3196C6.29311 44.0696 5.93925 43.9305 5.57171 43.9301H4.46439C4.26142 43.9251 4.06173 43.8778 3.87814 43.7911C3.69455 43.7044 3.53112 43.5802 3.39832 43.4267C3.21257 43.2106 3.07432 42.9579 2.99254 42.685C2.91077 42.412 2.88729 42.1249 2.92364 41.8423L4.85425 24.9298C4.92908 23.7566 5.43166 22.6515 6.26678 21.8239C7.1019 20.9964 8.21154 20.504 9.38546 20.4399H16.82C17.9939 20.504 19.1036 20.9964 19.9387 21.8239C20.7738 22.6515 21.2764 23.7566 21.3512 24.9298L23.2818 41.8423C23.3188 42.1251 23.2955 42.4125 23.2136 42.6857C23.1316 42.9589 22.9929 43.2117 22.8064 43.4274L22.8001 43.4267Z" fill="#FDAC03"/>
<path d="M37.8561 46.6483C35.3083 46.6394 32.8353 45.7864 30.8239 44.2227C30.6722 44.1024 30.4981 44.0134 30.3117 43.9611C30.1253 43.9088 29.9304 43.8942 29.7383 43.9181C29.5461 43.942 29.3607 44.004 29.1928 44.1004C29.025 44.1968 28.878 44.3257 28.7604 44.4795C28.6429 44.6334 28.5573 44.8091 28.5085 44.9965C28.4597 45.1838 28.4487 45.379 28.4762 45.5706C28.5037 45.7623 28.5692 45.9465 28.6687 46.1125C28.7682 46.2786 28.8999 46.4232 29.0559 46.5378C31.574 48.4907 34.6686 49.5536 37.8553 49.5601C40.2418 49.5649 42.5929 48.9831 44.7018 47.8658C46.8106 46.7484 48.6124 45.1299 49.9488 43.1526C51.2851 41.1753 52.1149 38.8998 52.3652 36.5265C52.6156 34.1531 52.2787 31.7546 51.3842 29.542C50.4898 27.3295 49.0652 25.3707 47.2359 23.838C45.4066 22.3053 43.2286 21.2458 40.8936 20.7526C38.5586 20.2595 36.1381 20.3478 33.8453 21.0099C31.5524 21.6719 29.4574 22.8874 27.7447 24.5493C27.4709 24.8185 27.3146 25.1849 27.3097 25.5688C27.3048 25.9527 27.4517 26.323 27.7185 26.5991C27.9852 26.8752 28.3502 27.0348 28.7341 27.043C29.1179 27.0513 29.4895 26.9077 29.7679 26.6434C31.1379 25.3178 32.8126 24.3491 34.6447 23.8222C36.4767 23.2954 38.4102 23.2266 40.2751 23.6219C42.14 24.0172 43.8792 24.8644 45.34 26.0893C46.8008 27.3141 47.9384 28.879 48.6528 30.6463C49.3673 32.4137 49.6367 34.3295 49.4374 36.2254C49.2381 38.1213 48.5762 39.9392 47.5098 41.5194C46.4435 43.0996 45.0054 44.3937 43.3218 45.288C41.6383 46.1823 39.7608 46.6494 37.8545 46.6483H37.8561Z" fill="#FDAC03"/>
<path d="M69.7294 30.6002C69.6296 29.7469 69.3353 28.9278 68.8694 28.2059C68.4034 27.4841 67.7782 26.8787 67.0416 26.4363C66.3385 26.0128 65.5473 25.7567 64.7293 25.6881C63.9112 25.6194 63.0884 25.7399 62.3244 26.0402C61.6921 26.2556 61.0009 26.218 60.3957 25.9351C59.7905 25.6522 59.3183 25.1461 59.078 24.5228C58.3986 22.9669 57.5666 21.4821 56.5941 20.0904C56.1749 19.5358 55.9796 18.8437 56.0471 18.1518C56.1145 17.4598 56.4398 16.8185 56.9583 16.3553C57.5951 15.8179 58.1031 15.1443 58.4448 14.3843C58.7865 13.6242 58.9532 12.7972 58.9325 11.9641C58.9181 11.1173 58.714 10.2845 58.335 9.52708C57.956 8.76966 57.4119 8.10694 56.7427 7.58777C54.5269 5.86331 52.1012 4.42702 49.5237 3.31335C48.7584 2.97815 47.9261 2.82353 47.0914 2.86145C46.2567 2.89936 45.4419 3.1288 44.7101 3.53201C43.9713 3.93786 43.3354 4.50768 42.8512 5.19769C42.3671 5.88769 42.0476 6.67951 41.9172 7.51229C41.8093 8.18446 41.4431 8.78789 40.8967 9.19401C40.3503 9.60013 39.6669 9.77683 38.9922 9.68646C37.3429 9.51177 35.6798 9.51177 34.0306 9.68646C33.3569 9.77495 32.6752 9.59761 32.1301 9.19204C31.5849 8.78647 31.2191 8.18454 31.1102 7.51384C30.9872 6.72183 30.6917 5.96652 30.2446 5.30135C29.7974 4.63618 29.2096 4.07741 28.5226 3.66458C27.8356 3.25174 27.0663 2.99493 26.269 2.91232C25.4718 2.82971 24.6662 2.92331 23.9091 3.18651C23.7261 3.24672 23.5568 3.34266 23.4112 3.46877C23.2655 3.59487 23.1463 3.74864 23.0605 3.92114C22.9747 4.09365 22.924 4.28147 22.9114 4.47372C22.8987 4.66597 22.9243 4.85883 22.9867 5.04111C23.0491 5.22339 23.1471 5.39147 23.2749 5.53561C23.4028 5.67975 23.5579 5.79708 23.7315 5.8808C23.905 5.96452 24.0934 6.01297 24.2858 6.02334C24.4782 6.0337 24.6707 6.00578 24.8522 5.94119C25.2085 5.81598 25.588 5.77108 25.9636 5.80968C26.3392 5.84828 26.7016 5.96944 27.0249 6.16448C27.3482 6.35952 27.6244 6.62363 27.8337 6.93789C28.0431 7.25215 28.1803 7.60879 28.2357 7.9823C28.453 9.39296 29.2126 10.663 30.3526 11.5219C31.4926 12.3807 32.9229 12.7606 34.3388 12.5804C35.7821 12.432 37.2368 12.432 38.6801 12.5804C40.095 12.7528 41.5217 12.37 42.6604 11.5126C43.799 10.6551 44.561 9.38976 44.7863 7.9823C44.8477 7.5868 44.9989 7.21061 45.2282 6.88257C45.4575 6.55453 45.7589 6.28335 46.1092 6.08981C46.4529 5.90241 46.8349 5.79608 47.2261 5.77895C47.6172 5.76182 48.007 5.83435 48.3658 5.99099C50.7187 7.01018 52.9335 8.32242 54.9576 9.89656C55.2835 10.1499 55.5482 10.4733 55.7322 10.8428C55.9162 11.2122 56.0147 11.6183 56.0206 12.0311C56.0327 12.4299 55.9551 12.8264 55.7935 13.1913C55.6319 13.5562 55.3904 13.8801 55.0868 14.1391C54.0092 15.0677 53.3211 16.3684 53.1597 17.7817C52.9984 19.1951 53.3755 20.6174 54.216 21.765C55.0769 22.9965 55.8133 24.3106 56.4143 25.6877C56.9585 27.0023 57.9906 28.0551 59.2942 28.6251C60.5978 29.1951 62.0715 29.2381 63.4061 28.7451C63.7534 28.6087 64.1276 28.5545 64.4994 28.5867C64.8712 28.619 65.2305 28.7369 65.5491 28.9311C65.9051 29.1484 66.2066 29.4442 66.4307 29.796C66.6547 30.1477 66.7953 30.5461 66.8417 30.9605C67.1716 33.5718 67.1716 36.2141 66.8417 38.8254C66.7944 39.2387 66.6534 39.6358 66.4294 39.9865C66.2054 40.3371 65.9043 40.6319 65.5491 40.8486C65.2254 41.0472 64.8593 41.1667 64.4807 41.1971C64.1021 41.2275 63.7216 41.1681 63.3703 41.0237C62.038 40.5382 60.5697 40.5865 59.2722 41.1584C57.9747 41.7304 56.9485 42.7818 56.4081 44.0927C55.8077 45.4702 55.0713 46.7843 54.2098 48.0154C53.3691 49.1641 52.9918 50.5874 53.1532 52.0017C53.3145 53.4161 54.0027 54.7178 55.0806 55.6476C55.3841 55.9061 55.6257 56.2296 55.7873 56.5941C55.949 56.9586 56.0266 57.3548 56.0144 57.7533C56.0085 58.166 55.91 58.5721 55.726 58.9416C55.542 59.3111 55.2772 59.6344 54.9514 59.8878C52.9281 61.4608 50.7141 62.7717 48.362 63.7895C48.003 63.9455 47.6132 64.0177 47.2222 64.0005C46.8312 63.9834 46.4492 63.8774 46.1053 63.6906C45.7552 63.4973 45.454 63.2265 45.2248 62.8989C44.9955 62.5713 44.8442 62.1956 44.7824 61.8005C44.5494 60.3972 43.786 59.137 42.6501 58.2806C41.5142 57.4243 40.0926 57.0371 38.6793 57.1992C37.2363 57.3521 35.7811 57.3521 34.338 57.1992C32.9218 57.0193 31.4912 57.3991 30.3508 58.2578C29.2104 59.1166 28.4501 60.3866 28.2318 61.7974C28.1787 62.1423 28.0574 62.4732 27.8749 62.7706C27.6923 63.068 27.4523 63.3261 27.1688 63.5296C26.8938 63.727 26.5821 63.8673 26.252 63.9423C25.9218 64.0172 25.5801 64.0254 25.2468 63.9661C24.8708 63.9081 24.487 63.9996 24.1777 64.221C23.8684 64.4425 23.6581 64.7763 23.5918 65.1509C23.5256 65.5255 23.6087 65.9112 23.8234 66.2252C24.038 66.5393 24.3671 66.7569 24.7402 66.8313C25.0565 66.8868 25.377 66.9152 25.6981 66.9161C27.0061 66.9158 28.2708 66.4473 29.2632 65.5953C30.2556 64.7433 30.9103 63.5641 31.1086 62.2713C31.2151 61.5988 31.5808 60.9948 32.1273 60.5887C32.6737 60.1826 33.3576 60.0067 34.0322 60.0987C35.6814 60.2733 37.3445 60.2733 38.9937 60.0987C39.6678 60.0079 40.3506 60.1844 40.8963 60.5904C41.442 60.9963 41.8073 61.5996 41.9141 62.2713C42.0439 63.1039 42.3633 63.8956 42.8475 64.5853C43.3317 65.275 43.9679 65.8443 44.7069 66.2492C45.4388 66.6524 46.2536 66.8819 47.0883 66.9198C47.923 66.9577 48.7553 66.8031 49.5206 66.4679C52.0974 65.3529 54.5229 63.9167 56.7396 62.1935C57.4088 61.6743 57.9529 61.0116 58.3319 60.2542C58.7108 59.4967 58.915 58.6639 58.9293 57.8171C58.9487 56.9843 58.7815 56.1576 58.4399 55.3978C58.0983 54.638 57.591 53.9642 56.9552 53.426C56.4375 52.9622 56.1128 52.321 56.0453 51.6293C55.9779 50.9376 56.1726 50.2458 56.591 49.6908C57.5645 48.3019 58.3966 46.8192 59.0749 45.2646C59.3203 44.6381 59.7991 44.1311 60.4107 43.8503C61.0222 43.5694 61.7188 43.5367 62.354 43.7589C63.1143 44.0539 63.9319 44.171 64.7444 44.1014C65.5568 44.0318 66.3426 43.7773 67.0416 43.3574C67.7777 42.9152 68.4028 42.3103 68.8687 41.5891C69.3346 40.8678 69.629 40.0493 69.7294 39.1966C70.0904 36.3438 70.0904 33.4569 69.7294 30.6041V30.6002Z" fill="#FDAC03"/>
</g>
<defs>
<clipPath id="clip0_1_3850">
<rect width="70" height="69.8864" fill="white" transform="translate(0 0.0567627)"/>
</clipPath>
</defs>
</svg>
