<svg width="56" height="70" viewBox="0 0 56 70" fill="none" xmlns="http://www.w3.org/2000/svg">
<g clip-path="url(#clip0_1_3758)">
<path d="M53.6356 14.2838L49.1484 7.63143C48.9248 7.31508 48.5861 7.09889 48.205 7.02916C47.8239 6.95943 47.4306 7.0417 47.1094 7.25835C46.7882 7.47501 46.5646 7.80881 46.4865 8.1883C46.4084 8.56778 46.482 8.96277 46.6915 9.28866L49.0714 12.817L35.132 10.1075C34.941 10.0704 34.7445 10.0712 34.5539 10.11C34.3632 10.1488 34.182 10.2248 34.0207 10.3336C33.8593 10.4424 33.721 10.5819 33.6136 10.7442C33.5062 10.9065 33.4318 11.0883 33.3947 11.2793C33.3575 11.4704 33.3584 11.6668 33.3972 11.8575C33.436 12.0482 33.512 12.2294 33.6208 12.3907C33.7296 12.5521 33.8691 12.6904 34.0314 12.7978C34.1937 12.9052 34.3755 12.9796 34.5665 13.0167L48.7715 15.7779L45.097 18.2564C44.9357 18.3652 44.7973 18.5047 44.6899 18.667C44.5825 18.8292 44.5081 19.0111 44.471 19.2021C44.4339 19.3931 44.4347 19.5896 44.4735 19.7803C44.5123 19.971 44.5883 20.1521 44.6971 20.3135C44.8059 20.4748 44.9455 20.6131 45.1077 20.7205C45.27 20.8279 45.4518 20.9023 45.6429 20.9394C45.8339 20.9766 46.0303 20.9757 46.221 20.9369C46.4117 20.8981 46.5929 20.8221 46.7542 20.7133L53.2364 16.3411C53.3977 16.2322 53.536 16.0927 53.6434 15.9304C53.7507 15.7681 53.8251 15.5862 53.8621 15.3952C53.8992 15.2041 53.8983 15.0076 53.8594 14.817C53.8205 14.6263 53.7445 14.4451 53.6356 14.2838Z" fill="#FDAC03"/>
<path d="M45.2276 30.5124C44.0814 29.3889 42.6798 28.5601 41.143 28.0971C40.5929 26.9084 39.7655 25.8691 38.7302 25.0666C37.6949 24.2642 36.4821 23.7221 35.1938 23.4858C34.5958 23.3707 33.9885 23.3108 33.3795 23.3068C32.7827 22.2662 31.9659 21.3685 30.9863 20.6763C30.0066 19.9842 28.8876 19.5142 27.7075 19.2993L27.5714 19.2728L29.2973 10.3381C29.5043 9.37423 29.5025 8.37721 29.2918 7.41415C29.0812 6.45108 28.6667 5.54432 28.0762 4.7549C26.9528 3.33386 25.3402 2.38247 23.5531 2.08643C21.766 1.7904 19.9328 2.17098 18.4112 3.15388C17.6507 3.67566 17.003 4.34503 16.5064 5.12219C16.0098 5.89935 15.6746 6.76842 15.5207 7.67773L13.0308 20.5701L11.4464 28.7595C10.4618 29.0513 9.54721 29.5412 8.75875 30.1991C7.97029 30.8571 7.32462 31.6693 6.86136 32.5858C5.3497 35.4969 5.30369 39.6157 6.71096 45.1763C7.46554 48.0687 8.43404 50.901 9.60847 53.6498L8.97011 59.0782C8.83551 60.2536 9.1483 61.4366 9.84627 62.3918C10.5442 63.347 11.5762 64.0045 12.7369 64.2334L31.8079 67.9161C32.9244 68.128 34.0798 67.9289 35.061 67.3557C36.0422 66.7824 36.783 65.8737 37.1466 64.7971L38.9836 59.3016C44.8571 53.1187 47.9296 46.1259 48.1157 38.5126C48.2174 34.3681 46.6011 31.8745 45.2276 30.5124ZM36.6589 57.4425C36.48 57.6275 36.3445 57.8499 36.2621 58.0937L34.3362 63.8555C34.2021 64.2469 33.9284 64.5751 33.5676 64.7774C33.2067 64.9798 32.7839 65.0419 32.38 64.9521L13.325 61.2185C12.9 61.148 12.5182 60.9173 12.2582 60.5738C11.9982 60.2303 11.8798 59.8002 11.9274 59.372L12.5991 53.64C12.634 53.3406 12.5877 53.0373 12.4651 52.762C11.2132 49.888 4.34536 33.2087 12.8756 31.4444C13.2072 31.376 13.5112 31.2109 13.749 30.9699C13.9868 30.7288 14.1478 30.4227 14.2116 30.0901C14.9893 26.0615 17.5715 12.6939 18.4308 8.24205C18.6463 7.19839 19.2644 6.28167 20.151 5.69044C21.0377 5.09922 22.1215 4.8811 23.1679 5.08333C24.2142 5.28556 25.1387 5.89185 25.7412 6.77089C26.3437 7.64993 26.5756 8.73093 26.3867 9.77975L24.4064 20.0337C24.3586 20.2785 24.3645 20.5307 24.4236 20.773C24.4828 21.0152 24.5937 21.2418 24.7489 21.437C24.9041 21.6322 25.0997 21.7914 25.3224 21.9037C25.5451 22.0159 25.7894 22.0786 26.0387 22.0873C26.4089 22.0998 26.7776 22.1412 27.1415 22.2111C28.0051 22.3602 28.818 22.7222 29.5066 23.2643C30.1953 23.8064 30.7381 24.5115 31.0859 25.316C31.2001 25.5591 31.3705 25.7715 31.583 25.9358C31.7955 26.1001 32.0441 26.2115 32.3081 26.2609C32.4586 26.2901 32.6123 26.2998 32.7653 26.2896C33.388 26.2456 34.0137 26.2816 34.6272 26.3968C35.5522 26.5618 36.4162 26.9711 37.1297 27.5823C37.8432 28.1935 38.3803 28.9844 38.6853 29.8731C38.7737 30.1003 38.9162 30.3026 39.1005 30.4623C39.2848 30.6219 39.5053 30.7342 39.7428 30.7893C41.4494 31.1886 45.2934 32.7141 45.1535 38.4387C45.0241 43.7445 43.2847 50.5587 36.6589 57.4425Z" fill="#FDAC03"/>
</g>
<defs>
<clipPath id="clip0_1_3758">
<rect width="54.4542" height="70" fill="white" transform="translate(0.772949)"/>
</clipPath>
</defs>
</svg>
