<svg width="66" height="70" viewBox="0 0 66 70" fill="none" xmlns="http://www.w3.org/2000/svg">
<g clip-path="url(#clip0_1_3867)">
<path d="M62.8548 23.0938C63.968 26.3073 64.1023 28.7993 64.1023 32.3919C64.1056 37.5304 62.8413 42.5903 60.4217 47.1235C58.002 51.6566 54.5015 55.5229 50.2305 58.3799" stroke="#FDAC03" stroke-width="2.23835" stroke-linecap="round" stroke-linejoin="round"/>
<path d="M3.19088 42.3951C1.6076 37.6899 1.16641 32.6756 1.90375 27.7662C2.64108 22.8569 4.53579 18.1933 7.43139 14.1608C10.327 10.1283 14.1404 6.84254 18.5566 4.57486C22.9729 2.30718 27.8652 1.12267 32.8297 1.11916C36.8232 1.00599 40.7948 1.74805 44.478 3.29558M44.478 3.29558C44.5131 3.30976 44.2393 3.18814 44.478 3.29558Z" stroke="#FDAC03" stroke-width="2.23835" stroke-linecap="round" stroke-linejoin="round"/>
<path d="M27.8473 39.8978C26.2389 38.8299 25.0162 37.2735 24.3593 35.4581C23.7024 33.6427 23.6461 31.6643 24.1987 29.8144C24.7513 27.9646 25.8835 26.3412 27.4286 25.1835C28.9736 24.0258 30.8496 23.3952 32.7802 23.3844C34.7108 23.3737 36.5938 23.9834 38.1516 25.1238C39.7095 26.2642 40.8597 27.8749 41.4329 29.7184C42.006 31.562 41.9718 33.541 41.3351 35.3636C40.6985 37.1862 39.4931 38.7561 37.8968 39.8419" stroke="#FDAC03" stroke-width="2.23835" stroke-linecap="round" stroke-linejoin="round"/>
<path d="M46.1029 2.6084H62.31C62.8758 2.6084 63.4184 2.83314 63.8184 3.23318C64.2185 3.63323 64.4432 4.1758 64.4432 4.74155V20.9487C64.4316 21.4228 64.2673 21.8805 63.9748 22.2538C63.6823 22.6271 63.2772 22.896 62.8196 23.0207C62.6539 23.0671 62.482 23.0877 62.31 23.0819H46.1029C45.5371 23.0819 44.9946 22.8571 44.5945 22.4571C44.1945 22.057 43.9697 21.5145 43.9697 20.9487V4.74155C43.9697 4.1758 44.1945 3.63323 44.5945 3.23318C44.9946 2.83314 45.5371 2.6084 46.1029 2.6084Z" stroke="#FDAC03" stroke-width="2.23835" stroke-linecap="round"/>
<path d="M50.0427 10.7366C50.7626 10.7366 51.3462 10.153 51.3462 9.43311C51.3462 8.71322 50.7626 8.12964 50.0427 8.12964C49.3228 8.12964 48.7393 8.71322 48.7393 9.43311C48.7393 10.153 49.3228 10.7366 50.0427 10.7366Z" fill="#FDAC03"/>
<path d="M58.3723 10.7366C59.0922 10.7366 59.6758 10.153 59.6758 9.43311C59.6758 8.71322 59.0922 8.12964 58.3723 8.12964C57.6524 8.12964 57.0688 8.71322 57.0688 9.43311C57.0688 10.153 57.6524 10.7366 58.3723 10.7366Z" fill="#FDAC03"/>
<path d="M5.28166 39.6987H21.0247C21.5823 39.7069 22.1138 39.9363 22.5024 40.3363C22.8909 40.7363 23.1047 41.2742 23.0967 41.8318V58.039C23.1047 58.5966 22.8909 59.1345 22.5024 59.5345C22.1138 59.9346 21.5823 60.1639 21.0247 60.1722H5.28166C4.72407 60.1639 4.19258 59.9346 3.80404 59.5345C3.4155 59.1345 3.20171 58.5966 3.20969 58.039V41.8318L3.22237 41.7811L3.44621 40.8716L3.94014 40.206C4.30345 39.8675 4.78524 39.6853 5.28166 39.6987Z" stroke="#FDAC03" stroke-width="2.23835" stroke-linecap="round"/>
<path d="M8.69263 47.8269C9.41251 47.8269 9.99609 47.2433 9.99609 46.5234C9.99609 45.8036 9.41251 45.22 8.69263 45.22C7.97274 45.22 7.38916 45.8036 7.38916 46.5234C7.38916 47.2433 7.97274 47.8269 8.69263 47.8269Z" fill="#FDAC03"/>
<path d="M17.0222 47.8269C17.7421 47.8269 18.3257 47.2433 18.3257 46.5234C18.3257 45.8036 17.7421 45.22 17.0222 45.22C16.3023 45.22 15.7188 45.8036 15.7188 46.5234C15.7188 47.2433 16.3023 47.8269 17.0222 47.8269Z" fill="#FDAC03"/>
<path d="M14.3573 60.1722L11.7235 64.1311C11.4181 64.5917 11.2431 65.1264 11.2172 65.6785C11.1913 66.2306 11.3155 66.7794 11.5765 67.2665C11.8376 67.7537 12.2257 68.1611 12.6997 68.4453C13.1737 68.7295 13.7159 68.88 14.2685 68.8808H51.5132C52.0659 68.88 52.6081 68.7295 53.0821 68.4453C53.5561 68.1611 53.9442 67.7537 54.2052 67.2665C54.4663 66.7794 54.5904 66.2306 54.5646 65.6785C54.5387 65.1264 54.3637 64.5917 54.0582 64.1311L35.4344 36.142C35.155 35.7232 34.7766 35.3799 34.3327 35.1424C33.8888 34.905 33.3932 34.7808 32.8898 34.7808C32.3864 34.7808 31.8907 34.905 31.4469 35.1424C31.003 35.3799 30.6245 35.7232 30.3451 36.142L23.0944 47.0397" stroke="#FDAC03" stroke-width="2.23835" stroke-linecap="round" stroke-linejoin="round"/>
<path d="M32.8296 23.3833V1.1311" stroke="#FDAC03" stroke-width="2.23835" stroke-linecap="round" stroke-linejoin="round"/>
<path d="M41.8384 32.3918H64.1025" stroke="#FDAC03" stroke-width="2.23835" stroke-linecap="round" stroke-linejoin="round"/>
<path d="M23.8218 32.3918H1.55762" stroke="#FDAC03" stroke-width="2.23835" stroke-linecap="round" stroke-linejoin="round"/>
</g>
<defs>
<clipPath id="clip0_1_3867">
<rect width="65.1249" height="70" fill="white" transform="translate(0.4375)"/>
</clipPath>
</defs>
</svg>
