<svg width="12" height="7" viewBox="0 0 12 7" fill="none" xmlns="http://www.w3.org/2000/svg">
<path d="M11.5876 0.957585C11.662 1.03199 11.6992 1.11756 11.6992 1.21428C11.6992 1.31101 11.662 1.39657 11.5876 1.47098L6.38668 6.67187C6.31228 6.74628 6.22671 6.78348 6.12999 6.78348C6.03326 6.78348 5.9477 6.74628 5.87329 6.67187L0.672398 1.47098C0.597993 1.39657 0.560791 1.31101 0.560791 1.21428C0.560791 1.11756 0.597993 1.03199 0.672398 0.957585L1.23043 0.399549C1.30484 0.325144 1.3904 0.287942 1.48713 0.287942C1.58386 0.287942 1.66942 0.325144 1.74383 0.399549L6.12999 4.78571L10.5161 0.399549C10.5906 0.325144 10.6761 0.287942 10.7728 0.287942C10.8696 0.287942 10.9551 0.325144 11.0295 0.399549L11.5876 0.957585Z" fill="#FBFCFC"/>
</svg>
